999
DXF created by Inkscape
  0
SECTION
  2
HEADER
  9
$ACADVER
  1
AC1014
  9
$HANDSEED
  5
FFFF
  9
$MEASUREMENT
 70
     1
  0
ENDSEC
  0
SECTION
  2
TABLES
  0
TABLE
  2
VPORT
  5
8
330
0
100
AcDbSymbolTable
 70
     4
  0
VPORT
  5
2E
330
8
100
AcDbSymbolTableRecord
100
AcDbViewportTableRecord
  2
*ACTIVE
 70
     0
 10
0.0
 20
0.0
 11
1.0
 21
1.0
 12
210.0
 22
148.5
 13
0.0
 23
0.0
 14
10.0
 24
10.0
 15
10.0
 25
10.0
 16
0.0
 26
0.0
 36
1.0
 17
0.0
 27
0.0
 37
0.0
 40
341.0
 41
1.24
 42
50.0
 43
0.0
 44
0.0
 50
0.0
 51
0.0
 71
     0
 72
   100
 73
     1
 74
     3
 75
     0
 76
     0
 77
     0
 78
     0
  0
ENDTAB
  0
TABLE
  2
LTYPE
  5
5
330
0
100
AcDbSymbolTable
 70
     1
  0
LTYPE
  5
14
330
5
100
AcDbSymbolTableRecord
100
AcDbLinetypeTableRecord
  2
BYBLOCK
 70
     0
  3

 72
    65
 73
     0
 40
0.0
  0
LTYPE
  5
15
330
5
100
AcDbSymbolTableRecord
100
AcDbLinetypeTableRecord
  2
BYLAYER
 70
     0
  3

 72
    65
 73
     0
 40
0.0
  0
LTYPE
  5
16
330
5
100
AcDbSymbolTableRecord
100
AcDbLinetypeTableRecord
  2
CONTINUOUS
 70
     0
  3
Solid line
 72
    65
 73
     0
 40
0.0
  0
ENDTAB
  0
TABLE
  2
LAYER
  5
2
100
AcDbSymbolTable
 70
4
  0
LAYER
  5
50
100
AcDbSymbolTableRecord
100
AcDbLayerTableRecord
  2
0
 70
0
  6
CONTINUOUS
  0
LAYER
  5
51
100
AcDbSymbolTableRecord
100
AcDbLayerTableRecord
  2
Reference
 70
0
  6
CONTINUOUS
  0
LAYER
  5
52
100
AcDbSymbolTableRecord
100
AcDbLayerTableRecord
  2
Tracing
 70
0
  6
CONTINUOUS
  0
LAYER
  5
53
100
AcDbSymbolTableRecord
100
AcDbLayerTableRecord
  2
Export
 70
0
  6
CONTINUOUS
  0
ENDTAB
  0
TABLE
  2
STYLE
  5
3
330
0
100
AcDbSymbolTable
 70
     1
  0
STYLE
  5
11
330
3
100
AcDbSymbolTableRecord
100
AcDbTextStyleTableRecord
  2
STANDARD
 70
     0
 40
0.0
 41
1.0
 50
0.0
 71
     0
 42
2.5
  3
txt
  4

  0
ENDTAB
  0
TABLE
  2
VIEW
  5
6
330
0
100
AcDbSymbolTable
 70
     0
  0
ENDTAB
  0
TABLE
  2
UCS
  5
7
330
0
100
AcDbSymbolTable
 70
     0
  0
ENDTAB
  0
TABLE
  2
APPID
  5
9
330
0
100
AcDbSymbolTable
 70
     2
  0
APPID
  5
12
330
9
100
AcDbSymbolTableRecord
100
AcDbRegAppTableRecord
  2
ACAD
 70
     0
  0
ENDTAB
  0
TABLE
  2
DIMSTYLE
  5
A
330
0
100
AcDbSymbolTable
 70
     1
  0
DIMSTYLE
105
27
330
A
100
AcDbSymbolTableRecord
100
AcDbDimStyleTableRecord
  2
ISO-25
 70
     0
  3

  4

  5

  6

  7

 40
1.0
 41
2.5
 42
0.625
 43
3.75
 44
1.25
 45
0.0
 46
0.0
 47
0.0
 48
0.0
140
2.5
141
2.5
142
0.0
143
0.03937007874016
144
1.0
145
0.0
146
1.0
147
0.625
 71
     0
 72
     0
 73
     0
 74
     0
 75
     0
 76
     0
 77
     1
 78
     8
170
     0
171
     3
172
     1
173
     0
174
     0
175
     0
176
     0
177
     0
178
     0
270
     2
271
     2
272
     2
273
     2
274
     3
340
11
275
     0
280
     0
281
     0
282
     0
283
     0
284
     8
285
     0
286
     0
287
     3
288
     0
  0
ENDTAB
  0
TABLE
  2
BLOCK_RECORD
  5
1
330
0
100
AcDbSymbolTable
 70
     1
  0
BLOCK_RECORD
  5
1F
330
1
100
AcDbSymbolTableRecord
100
AcDbBlockTableRecord
  2
*MODEL_SPACE
  0
BLOCK_RECORD
  5
1B
330
1
100
AcDbSymbolTableRecord
100
AcDbBlockTableRecord
  2
*PAPER_SPACE
  0
ENDTAB
  0
ENDSEC
  0
SECTION
  2
BLOCKS
  0
BLOCK
  5
20
330
1F
100
AcDbEntity
  8
0
100
AcDbBlockBegin
  2
*MODEL_SPACE
 70
     0
 10
0.0
 20
0.0
 30
0.0
  3
*MODEL_SPACE
  1

  0
ENDBLK
  5
21
330
1F
100
AcDbEntity
  8
0
100
AcDbBlockEnd
  0
BLOCK
  5
1C
330
1B
100
AcDbEntity
 67
     1
  8
0
100
AcDbBlockBegin
  2
*PAPER_SPACE
  1

  0
ENDBLK
  5
1D
330
1B
100
AcDbEntity
 67
     1
  8
0
100
AcDbBlockEnd
  0
ENDSEC
  0
SECTION
  2
ENTITIES
  0
LINE
  5
100
100
AcDbEntity
  8
Tracing
 62
7
100
AcDbLine
 10
-28.728904
 20
-1.064034
 30
0.0
 11
-3.018308
 21
-1.064034
 31
0.0
  0
LINE
  5
101
100
AcDbEntity
  8
Tracing
 62
7
100
AcDbLine
 10
-3.018308
 20
-1.064034
 30
0.0
 11
-3.952124
 21
-4.712149
 31
0.0
  0
LINE
  5
102
100
AcDbEntity
  8
Tracing
 62
7
100
AcDbLine
 10
-3.952124
 20
-4.712149
 30
0.0
 11
-0.608019
 21
-2.736085
 31
0.0
  0
LINE
  5
103
100
AcDbEntity
  8
Tracing
 62
7
100
AcDbLine
 10
-0.608019
 20
-2.736085
 30
0.0
 11
-3.496110
 21
-19.912626
 31
0.0
  0
LINE
  5
104
100
AcDbEntity
  8
Tracing
 62
7
100
AcDbLine
 10
-3.496110
 20
-19.912626
 30
0.0
 11
-6.688211
 21
-19.895298
 31
0.0
  0
LINE
  5
105
100
AcDbEntity
  8
Tracing
 62
7
100
AcDbLine
 10
-6.688211
 20
-19.895298
 30
0.0
 11
-6.536206
 21
-4.104129
 31
0.0
  0
LINE
  5
106
100
AcDbEntity
  8
Tracing
 62
7
100
AcDbLine
 10
-6.536206
 20
-4.104129
 30
0.0
 11
-20.520646
 21
-4.104129
 31
0.0
  0
LINE
  5
107
100
AcDbEntity
  8
Tracing
 62
7
100
AcDbLine
 10
-20.520646
 20
-4.104129
 30
0.0
 11
-20.368641
 21
-19.608617
 31
0.0
  0
LINE
  5
108
100
AcDbEntity
  8
Tracing
 62
7
100
AcDbLine
 10
-20.368641
 20
-19.608617
 30
0.0
 11
-28.728904
 21
-19.608617
 31
0.0
  0
LINE
  5
109
100
AcDbEntity
  8
Tracing
 62
7
100
AcDbLine
 10
-28.728904
 20
-19.608617
 30
0.0
 11
-28.728904
 21
-1.064034
 31
0.0
  0
LINE
  5
10a
100
AcDbEntity
  8
Tracing
 62
7
100
AcDbLine
 10
5.320167
 20
-1.064034
 30
0.0
 11
29.640934
 21
-1.216039
 31
0.0
  0
SPLINE
  5
10b
100
AcDbEntity
  8
Tracing
 62
7
100
AcDbSpline
 70
8
 71
3
 72
8
 73
4
 74
0
 40
0
 40
0
 40
0
 40
0
 40
1
 40
1
 40
1
 40
1
 10
29.640934
 20
-1.216039
 30
0.0
 10
37.175051
 20
-3.826352
 30
0.0
 10
37.158614
 20
-19.954621
 30
0.0
 10
23.408737
 20
-20.008187
 30
0.0
  0
LINE
  5
10c
100
AcDbEntity
  8
Tracing
 62
7
100
AcDbLine
 10
23.408737
 20
-20.008187
 30
0.0
 11
-2.223627
 21
-19.979965
 31
0.0
  0
LINE
  5
10d
100
AcDbEntity
  8
Tracing
 62
7
100
AcDbLine
 10
-2.223627
 20
-19.979965
 30
0.0
 11
5.320167
 21
-1.064034
 31
0.0
  0
LINE
  5
10e
100
AcDbEntity
  8
Tracing
 62
7
100
AcDbLine
 10
9.424297
 20
-12.920407
 30
0.0
 11
23.680066
 21
-12.920407
 31
0.0
  0
SPLINE
  5
10f
100
AcDbEntity
  8
Tracing
 62
7
100
AcDbSpline
 70
8
 71
3
 72
8
 73
4
 74
0
 40
0
 40
0
 40
0
 40
0
 40
1
 40
1
 40
1
 40
1
 10
23.680066
 20
-12.920407
 30
0.0
 10
26.156164
 20
-13.058084
 30
0.0
 10
26.942284
 20
-4.432560
 30
0.0
 10
23.680066
 20
-4.351695
 30
0.0
  0
LINE
  5
110
100
AcDbEntity
  8
Tracing
 62
7
100
AcDbLine
 10
23.680066
 20
-4.351695
 30
0.0
 11
9.272292
 21
-4.256134
 31
0.0
  0
LINE
  5
111
100
AcDbEntity
  8
Tracing
 62
7
100
AcDbLine
 10
9.272292
 20
-4.256134
 30
0.0
 11
9.424297
 21
-12.920407
 31
0.0
  0
LINE
  5
112
100
AcDbEntity
  8
Tracing
 62
7
100
AcDbLine
 10
6.076597
 20
18.693536
 30
0.0
 11
4.559653
 21
11.708536
 31
0.0
  0
LINE
  5
113
100
AcDbEntity
  8
Tracing
 62
7
100
AcDbLine
 10
4.559653
 20
11.708536
 30
0.0
 11
7.752292
 21
13.075550
 31
0.0
  0
LINE
  5
114
100
AcDbEntity
  8
Tracing
 62
7
100
AcDbLine
 10
7.752292
 20
13.075550
 30
0.0
 11
4.101042
 21
2.889092
 31
0.0
  0
LINE
  5
115
100
AcDbEntity
  8
Tracing
 62
7
100
AcDbLine
 10
4.101042
 20
2.889092
 30
0.0
 11
7.653514
 21
4.714717
 31
0.0
  0
LINE
  5
116
100
AcDbEntity
  8
Tracing
 62
7
100
AcDbLine
 10
7.653514
 20
4.714717
 30
0.0
 11
5.796139
 21
0.604856
 31
0.0
  0
LINE
  5
117
100
AcDbEntity
  8
Tracing
 62
7
100
AcDbLine
 10
5.796139
 20
0.604856
 30
0.0
 11
30.100764
 21
0.604856
 31
0.0
  0
SPLINE
  5
118
100
AcDbEntity
  8
Tracing
 62
7
100
AcDbSpline
 70
8
 71
3
 72
8
 73
4
 74
0
 40
0
 40
0
 40
0
 40
0
 40
1
 40
1
 40
1
 40
1
 10
30.100764
 20
0.604856
 30
0.0
 10
36.671352
 20
3.843028
 30
0.0
 10
37.270402
 20
18.468583
 30
0.0
 10
24.324028
 20
18.684717
 30
0.0
  0
LINE
  5
119
100
AcDbEntity
  8
Tracing
 62
7
100
AcDbLine
 10
24.324028
 20
18.684717
 30
0.0
 11
6.076597
 21
18.693522
 31
0.0
  0
LINE
  5
11a
100
AcDbEntity
  8
Tracing
 62
7
100
AcDbLine
 10
6.076597
 20
18.693522
 30
0.0
 11
6.076597
 21
18.693536
 31
0.0
  0
SPLINE
  5
11b
100
AcDbEntity
  8
Tracing
 62
7
100
AcDbSpline
 70
8
 71
3
 72
8
 73
4
 74
0
 40
0
 40
0
 40
0
 40
0
 40
1
 40
1
 40
1
 40
1
 10
22.613056
 20
11.752634
 30
0.0
 10
26.257812
 20
11.298228
 30
0.0
 10
27.024138
 20
2.689660
 30
0.0
 10
22.798264
 20
3.056661
 30
0.0
  0
LINE
  5
11c
100
AcDbEntity
  8
Tracing
 62
7
100
AcDbLine
 10
22.798264
 20
3.056661
 30
0.0
 11
9.427986
 21
3.065467
 31
0.0
  0
LINE
  5
11d
100
AcDbEntity
  8
Tracing
 62
7
100
AcDbLine
 10
9.427986
 20
3.065467
 30
0.0
 11
9.427986
 21
11.708522
 31
0.0
  0
LINE
  5
11e
100
AcDbEntity
  8
Tracing
 62
7
100
AcDbLine
 10
9.427986
 20
11.708522
 30
0.0
 11
22.613056
 21
11.752620
 31
0.0
  0
LINE
  5
11f
100
AcDbEntity
  8
Tracing
 62
7
100
AcDbLine
 10
22.613056
 20
11.752620
 30
0.0
 11
22.613056
 21
11.752634
 31
0.0
  0
LINE
  5
120
100
AcDbEntity
  8
Tracing
 62
7
100
AcDbLine
 10
-28.707117
 20
18.713918
 30
0.0
 11
-20.323090
 21
18.696590
 31
0.0
  0
LINE
  5
121
100
AcDbEntity
  8
Tracing
 62
7
100
AcDbLine
 10
-20.323090
 20
18.696590
 30
0.0
 11
-20.329525
 21
3.500569
 31
0.0
  0
LINE
  5
122
100
AcDbEntity
  8
Tracing
 62
7
100
AcDbLine
 10
-20.329525
 20
3.500569
 30
0.0
 11
-6.351520
 21
3.513438
 31
0.0
  0
LINE
  5
123
100
AcDbEntity
  8
Tracing
 62
7
100
AcDbLine
 10
-6.351520
 20
3.513438
 30
0.0
 11
-6.401529
 21
18.696590
 31
0.0
  0
LINE
  5
124
100
AcDbEntity
  8
Tracing
 62
7
100
AcDbLine
 10
-6.401529
 20
18.696590
 30
0.0
 11
-1.824057
 21
18.763928
 31
0.0
  0
LINE
  5
125
100
AcDbEntity
  8
Tracing
 62
7
100
AcDbLine
 10
-1.824057
 20
18.763928
 30
0.0
 11
-4.723042
 21
5.747961
 31
0.0
  0
LINE
  5
126
100
AcDbEntity
  8
Tracing
 62
7
100
AcDbLine
 10
-4.723042
 20
5.747961
 30
0.0
 11
-0.760024
 21
7.752244
 31
0.0
  0
LINE
  5
127
100
AcDbEntity
  8
Tracing
 62
7
100
AcDbLine
 10
-0.760024
 20
7.752244
 30
0.0
 11
-2.736086
 21
0.152005
 31
0.0
  0
LINE
  5
128
100
AcDbEntity
  8
Tracing
 62
7
100
AcDbLine
 10
-2.736086
 20
0.152005
 30
0.0
 11
-28.728904
 21
0.134676
 31
0.0
  0
LINE
  5
129
100
AcDbEntity
  8
Tracing
 62
7
100
AcDbLine
 10
-28.728904
 20
0.134676
 30
0.0
 11
-28.707117
 21
18.713918
 31
0.0
  0
SPLINE
  5
12a
100
AcDbEntity
  8
Tracing
 62
7
100
AcDbSpline
 70
8
 71
3
 72
8
 73
4
 74
0
 40
0
 40
0
 40
0
 40
0
 40
1
 40
1
 40
1
 40
1
 10
-36.937163
 20
-6.073755
 30
0.0
 10
-36.109899
 20
-12.831826
 30
0.0
 10
-32.949809
 20
-19.183511
 30
0.0
 10
-28.880909
 20
-24.320765
 30
0.0
  0
LINE
  5
12b
100
AcDbEntity
  8
Tracing
 62
7
100
AcDbLine
 10
-28.880909
 20
-24.320765
 30
0.0
 11
30.400958
 21
-24.320765
 31
0.0
  0
SPLINE
  5
12c
100
AcDbEntity
  8
Tracing
 62
7
100
AcDbSpline
 70
8
 71
3
 72
8
 73
4
 74
0
 40
0
 40
0
 40
0
 40
0
 40
1
 40
1
 40
1
 40
1
 10
30.400958
 20
-24.320765
 30
0.0
 10
34.780751
 20
-20.219204
 30
0.0
 10
37.859304
 20
-14.300592
 30
0.0
 10
38.997893
 20
-6.147528
 30
0.0
  0
LINE
  5
12d
100
AcDbEntity
  8
Tracing
 62
7
100
AcDbLine
 10
38.997893
 20
-6.147528
 30
0.0
 11
35.113104
 21
-2.217191
 31
0.0
  0
LINE
  5
12e
100
AcDbEntity
  8
Tracing
 62
7
100
AcDbLine
 10
35.113104
 20
-2.217191
 30
0.0
 11
35.091316
 21
1.194252
 31
0.0
  0
LINE
  5
12f
100
AcDbEntity
  8
Tracing
 62
7
100
AcDbLine
 10
35.091316
 20
1.194252
 30
0.0
 11
39.082557
 21
5.135482
 31
0.0
  0
SPLINE
  5
130
100
AcDbEntity
  8
Tracing
 62
7
100
AcDbSpline
 70
8
 71
3
 72
8
 73
4
 74
0
 40
0
 40
0
 40
0
 40
0
 40
1
 40
1
 40
1
 40
1
 10
39.082557
 20
5.135482
 30
0.0
 10
37.240159
 20
14.405390
 30
0.0
 10
33.296682
 20
20.103414
 30
0.0
 10
30.704962
 20
23.712746
 30
0.0
  0
LINE
  5
131
100
AcDbEntity
  8
Tracing
 62
7
100
AcDbLine
 10
30.704962
 20
23.712746
 30
0.0
 11
-28.846255
 21
23.712746
 31
0.0
  0
SPLINE
  5
132
100
AcDbEntity
  8
Tracing
 62
7
100
AcDbSpline
 70
8
 71
3
 72
8
 73
4
 74
0
 40
0
 40
0
 40
0
 40
0
 40
1
 40
1
 40
1
 40
1
 10
-28.846255
 20
23.712746
 30
0.0
 10
-33.111858
 20
17.434822
 30
0.0
 10
-35.950875
 20
11.287235
 30
0.0
 10
-36.830711
 20
5.111719
 30
0.0
  0
LINE
  5
133
100
AcDbEntity
  8
Tracing
 62
7
100
AcDbLine
 10
-36.830711
 20
5.111719
 30
0.0
 11
-33.441056
 21
1.114044
 31
0.0
  0
LINE
  5
134
100
AcDbEntity
  8
Tracing
 62
7
100
AcDbLine
 10
-33.441056
 20
1.114044
 30
0.0
 11
-33.447490
 21
-2.380090
 31
0.0
  0
LINE
  5
135
100
AcDbEntity
  8
Tracing
 62
7
100
AcDbLine
 10
-33.447490
 20
-2.380090
 30
0.0
 11
-36.937163
 21
-6.073755
 31
0.0
  0
LINE
  5
136
100
AcDbEntity
  8
Tracing
 62
7
100
AcDbLine
 10
-29.944943
 20
26.600839
 30
0.0
 11
32.377019
 21
26.600839
 31
0.0
  0
SPLINE
  5
137
100
AcDbEntity
  8
Tracing
 62
7
100
AcDbSpline
 70
8
 71
3
 72
8
 73
4
 74
0
 40
0
 40
0
 40
0
 40
0
 40
1
 40
1
 40
1
 40
1
 10
32.377019
 20
26.600839
 30
0.0
 10
36.390230
 20
20.634593
 30
0.0
 10
40.592285
 20
14.367010
 30
0.0
 10
42.268225
 20
4.104129
 30
0.0
  0
LINE
  5
138
100
AcDbEntity
  8
Tracing
 62
7
100
AcDbLine
 10
42.268225
 20
4.104129
 30
0.0
 11
37.716745
 21
-0.436457
 31
0.0
  0
LINE
  5
139
100
AcDbEntity
  8
Tracing
 62
7
100
AcDbLine
 10
37.716745
 20
-0.436457
 30
0.0
 11
42.229109
 21
-4.892376
 31
0.0
  0
SPLINE
  5
13a
100
AcDbEntity
  8
Tracing
 62
7
100
AcDbSpline
 70
8
 71
3
 72
8
 73
4
 74
0
 40
0
 40
0
 40
0
 40
0
 40
1
 40
1
 40
1
 40
1
 10
42.229109
 20
-4.892376
 30
0.0
 10
41.166830
 20
-15.003210
 30
0.0
 10
37.326748
 20
-21.624352
 30
0.0
 10
32.377019
 20
-27.360860
 30
0.0
  0
LINE
  5
13b
100
AcDbEntity
  8
Tracing
 62
7
100
AcDbLine
 10
32.377019
 20
-27.360860
 30
0.0
 11
-30.248953
 21
-27.360860
 31
0.0
  0
SPLINE
  5
13c
100
AcDbEntity
  8
Tracing
 62
7
100
AcDbSpline
 70
8
 71
3
 72
8
 73
4
 74
0
 40
0
 40
0
 40
0
 40
0
 40
1
 40
1
 40
1
 40
1
 10
-30.248953
 20
-27.360860
 30
0.0
 10
-35.172774
 20
-22.185142
 30
0.0
 10
-38.841974
 20
-14.822980
 30
0.0
 10
-40.129262
 20
-5.168163
 30
0.0
  0
LINE
  5
13d
100
AcDbEntity
  8
Tracing
 62
7
100
AcDbLine
 10
-40.129262
 20
-5.168163
 30
0.0
 11
-35.949131
 21
-0.532017
 31
0.0
  0
LINE
  5
13e
100
AcDbEntity
  8
Tracing
 62
7
100
AcDbLine
 10
-35.949131
 20
-0.532017
 30
0.0
 11
-39.977258
 21
4.104129
 31
0.0
  0
SPLINE
  5
13f
100
AcDbEntity
  8
Tracing
 62
7
100
AcDbSpline
 70
8
 71
3
 72
8
 73
4
 74
0
 40
0
 40
0
 40
0
 40
0
 40
1
 40
1
 40
1
 40
1
 10
-39.977258
 20
4.104129
 30
0.0
 10
-38.972837
 20
13.320988
 30
0.0
 10
-34.962002
 20
19.791564
 30
0.0
 10
-29.944943
 20
26.600839
 30
0.0
  0
LINE
  5
140
100
AcDbEntity
  8
Tracing
 62
7
100
AcDbLine
 10
-29.944943
 20
26.600839
 30
0.0
 11
-29.944943
 21
26.600839
 31
0.0
  0
LINE
  5
141
100
AcDbEntity
  8
Export
 62
7
100
AcDbLine
 10
-28.728904
 20
-1.064034
 30
0.0
 11
-3.018308
 21
-1.064034
 31
0.0
  0
LINE
  5
142
100
AcDbEntity
  8
Export
 62
7
100
AcDbLine
 10
-3.018308
 20
-1.064034
 30
0.0
 11
-3.952124
 21
-4.712149
 31
0.0
  0
LINE
  5
143
100
AcDbEntity
  8
Export
 62
7
100
AcDbLine
 10
-3.952124
 20
-4.712149
 30
0.0
 11
-0.608019
 21
-2.736085
 31
0.0
  0
LINE
  5
144
100
AcDbEntity
  8
Export
 62
7
100
AcDbLine
 10
-0.608019
 20
-2.736085
 30
0.0
 11
-3.496110
 21
-19.912626
 31
0.0
  0
LINE
  5
145
100
AcDbEntity
  8
Export
 62
7
100
AcDbLine
 10
-3.496110
 20
-19.912626
 30
0.0
 11
-6.688211
 21
-19.895298
 31
0.0
  0
LINE
  5
146
100
AcDbEntity
  8
Export
 62
7
100
AcDbLine
 10
-6.688211
 20
-19.895298
 30
0.0
 11
-6.536206
 21
-4.104129
 31
0.0
  0
LINE
  5
147
100
AcDbEntity
  8
Export
 62
7
100
AcDbLine
 10
-6.536206
 20
-4.104129
 30
0.0
 11
-20.520646
 21
-4.104129
 31
0.0
  0
LINE
  5
148
100
AcDbEntity
  8
Export
 62
7
100
AcDbLine
 10
-20.520646
 20
-4.104129
 30
0.0
 11
-20.368641
 21
-19.608617
 31
0.0
  0
LINE
  5
149
100
AcDbEntity
  8
Export
 62
7
100
AcDbLine
 10
-20.368641
 20
-19.608617
 30
0.0
 11
-28.728904
 21
-19.608617
 31
0.0
  0
LINE
  5
14a
100
AcDbEntity
  8
Export
 62
7
100
AcDbLine
 10
-28.728904
 20
-19.608617
 30
0.0
 11
-28.728904
 21
-1.064034
 31
0.0
  0
LINE
  5
14b
100
AcDbEntity
  8
Export
 62
7
100
AcDbLine
 10
5.320167
 20
-1.064034
 30
0.0
 11
29.640934
 21
-1.216039
 31
0.0
  0
LINE
  5
14c
100
AcDbEntity
  8
Export
 62
7
100
AcDbLine
 10
29.640934
 20
-1.216039
 30
0.0
 11
30.324948
 21
-1.499456
 31
0.0
  0
LINE
  5
14d
100
AcDbEntity
  8
Export
 62
7
100
AcDbLine
 10
30.324948
 20
-1.499456
 30
0.0
 11
30.963588
 21
-1.856662
 31
0.0
  0
LINE
  5
14e
100
AcDbEntity
  8
Export
 62
7
100
AcDbLine
 10
30.963588
 20
-1.856662
 30
0.0
 11
31.555723
 21
-2.282236
 31
0.0
  0
LINE
  5
14f
100
AcDbEntity
  8
Export
 62
7
100
AcDbLine
 10
31.555723
 20
-2.282236
 30
0.0
 11
32.100219
 21
-2.770762
 31
0.0
  0
LINE
  5
150
100
AcDbEntity
  8
Export
 62
7
100
AcDbLine
 10
32.100219
 20
-2.770762
 30
0.0
 11
32.595946
 21
-3.316821
 31
0.0
  0
LINE
  5
151
100
AcDbEntity
  8
Export
 62
7
100
AcDbLine
 10
32.595946
 20
-3.316821
 30
0.0
 11
33.041771
 21
-3.914993
 31
0.0
  0
LINE
  5
152
100
AcDbEntity
  8
Export
 62
7
100
AcDbLine
 10
33.041771
 20
-3.914993
 30
0.0
 11
33.436561
 21
-4.559861
 31
0.0
  0
LINE
  5
153
100
AcDbEntity
  8
Export
 62
7
100
AcDbLine
 10
33.436561
 20
-4.559861
 30
0.0
 11
33.779185
 21
-5.246005
 31
0.0
  0
LINE
  5
154
100
AcDbEntity
  8
Export
 62
7
100
AcDbLine
 10
33.779185
 20
-5.246005
 30
0.0
 11
34.068510
 21
-5.968008
 31
0.0
  0
LINE
  5
155
100
AcDbEntity
  8
Export
 62
7
100
AcDbLine
 10
34.068510
 20
-5.968008
 30
0.0
 11
34.303405
 21
-6.720450
 31
0.0
  0
LINE
  5
156
100
AcDbEntity
  8
Export
 62
7
100
AcDbLine
 10
34.303405
 20
-6.720450
 30
0.0
 11
34.482737
 21
-7.497913
 31
0.0
  0
LINE
  5
157
100
AcDbEntity
  8
Export
 62
7
100
AcDbLine
 10
34.482737
 20
-7.497913
 30
0.0
 11
34.605375
 21
-8.294978
 31
0.0
  0
LINE
  5
158
100
AcDbEntity
  8
Export
 62
7
100
AcDbLine
 10
34.605375
 20
-8.294978
 30
0.0
 11
34.670185
 21
-9.106228
 31
0.0
  0
LINE
  5
159
100
AcDbEntity
  8
Export
 62
7
100
AcDbLine
 10
34.670185
 20
-9.106228
 30
0.0
 11
34.676036
 21
-9.926242
 31
0.0
  0
LINE
  5
15a
100
AcDbEntity
  8
Export
 62
7
100
AcDbLine
 10
34.676036
 20
-9.926242
 30
0.0
 11
34.621796
 21
-10.749604
 31
0.0
  0
LINE
  5
15b
100
AcDbEntity
  8
Export
 62
7
100
AcDbLine
 10
34.621796
 20
-10.749604
 30
0.0
 11
34.506333
 21
-11.570893
 31
0.0
  0
LINE
  5
15c
100
AcDbEntity
  8
Export
 62
7
100
AcDbLine
 10
34.506333
 20
-11.570893
 30
0.0
 11
34.328514
 21
-12.384692
 31
0.0
  0
LINE
  5
15d
100
AcDbEntity
  8
Export
 62
7
100
AcDbLine
 10
34.328514
 20
-12.384692
 30
0.0
 11
34.087208
 21
-13.185582
 31
0.0
  0
LINE
  5
15e
100
AcDbEntity
  8
Export
 62
7
100
AcDbLine
 10
34.087208
 20
-13.185582
 30
0.0
 11
33.781282
 21
-13.968144
 31
0.0
  0
LINE
  5
15f
100
AcDbEntity
  8
Export
 62
7
100
AcDbLine
 10
33.781282
 20
-13.968144
 30
0.0
 11
33.409604
 21
-14.726960
 31
0.0
  0
LINE
  5
160
100
AcDbEntity
  8
Export
 62
7
100
AcDbLine
 10
33.409604
 20
-14.726960
 30
0.0
 11
32.971042
 21
-15.456612
 31
0.0
  0
LINE
  5
161
100
AcDbEntity
  8
Export
 62
7
100
AcDbLine
 10
32.971042
 20
-15.456612
 30
0.0
 11
32.464464
 21
-16.151679
 31
0.0
  0
LINE
  5
162
100
AcDbEntity
  8
Export
 62
7
100
AcDbLine
 10
32.464464
 20
-16.151679
 30
0.0
 11
31.888738
 21
-16.806745
 31
0.0
  0
LINE
  5
163
100
AcDbEntity
  8
Export
 62
7
100
AcDbLine
 10
31.888738
 20
-16.806745
 30
0.0
 11
31.242732
 21
-17.416391
 31
0.0
  0
LINE
  5
164
100
AcDbEntity
  8
Export
 62
7
100
AcDbLine
 10
31.242732
 20
-17.416391
 30
0.0
 11
30.525313
 21
-17.975197
 31
0.0
  0
LINE
  5
165
100
AcDbEntity
  8
Export
 62
7
100
AcDbLine
 10
30.525313
 20
-17.975197
 30
0.0
 11
29.735350
 21
-18.477746
 31
0.0
  0
LINE
  5
166
100
AcDbEntity
  8
Export
 62
7
100
AcDbLine
 10
29.735350
 20
-18.477746
 30
0.0
 11
28.871710
 21
-18.918618
 31
0.0
  0
LINE
  5
167
100
AcDbEntity
  8
Export
 62
7
100
AcDbLine
 10
28.871710
 20
-18.918618
 30
0.0
 11
27.933262
 21
-19.292396
 31
0.0
  0
LINE
  5
168
100
AcDbEntity
  8
Export
 62
7
100
AcDbLine
 10
27.933262
 20
-19.292396
 30
0.0
 11
26.918872
 21
-19.593660
 31
0.0
  0
LINE
  5
169
100
AcDbEntity
  8
Export
 62
7
100
AcDbLine
 10
26.918872
 20
-19.593660
 30
0.0
 11
25.827409
 21
-19.816993
 31
0.0
  0
LINE
  5
16a
100
AcDbEntity
  8
Export
 62
7
100
AcDbLine
 10
25.827409
 20
-19.816993
 30
0.0
 11
24.657742
 21
-19.956974
 31
0.0
  0
LINE
  5
16b
100
AcDbEntity
  8
Export
 62
7
100
AcDbLine
 10
24.657742
 20
-19.956974
 30
0.0
 11
23.408737
 21
-20.008187
 31
0.0
  0
LINE
  5
16c
100
AcDbEntity
  8
Export
 62
7
100
AcDbLine
 10
23.408737
 20
-20.008187
 30
0.0
 11
-2.223627
 21
-19.979965
 31
0.0
  0
LINE
  5
16d
100
AcDbEntity
  8
Export
 62
7
100
AcDbLine
 10
-2.223627
 20
-19.979965
 30
0.0
 11
5.320167
 21
-1.064034
 31
0.0
  0
LINE
  5
16e
100
AcDbEntity
  8
Export
 62
7
100
AcDbLine
 10
9.424297
 20
-12.920407
 30
0.0
 11
23.680066
 21
-12.920407
 31
0.0
  0
LINE
  5
16f
100
AcDbEntity
  8
Export
 62
7
100
AcDbLine
 10
23.680066
 20
-12.920407
 30
0.0
 11
23.907177
 21
-12.908169
 31
0.0
  0
LINE
  5
170
100
AcDbEntity
  8
Export
 62
7
100
AcDbLine
 10
23.907177
 20
-12.908169
 30
0.0
 11
24.123954
 21
-12.847753
 31
0.0
  0
LINE
  5
171
100
AcDbEntity
  8
Export
 62
7
100
AcDbLine
 10
24.123954
 20
-12.847753
 30
0.0
 11
24.524779
 21
-12.595065
 31
0.0
  0
LINE
  5
172
100
AcDbEntity
  8
Export
 62
7
100
AcDbLine
 10
24.524779
 20
-12.595065
 30
0.0
 11
24.879085
 21
-12.187696
 31
0.0
  0
LINE
  5
173
100
AcDbEntity
  8
Export
 62
7
100
AcDbLine
 10
24.879085
 20
-12.187696
 30
0.0
 11
25.183419
 21
-11.651000
 31
0.0
  0
LINE
  5
174
100
AcDbEntity
  8
Export
 62
7
100
AcDbLine
 10
25.183419
 20
-11.651000
 30
0.0
 11
25.434326
 21
-11.010329
 31
0.0
  0
LINE
  5
175
100
AcDbEntity
  8
Export
 62
7
100
AcDbLine
 10
25.434326
 20
-11.010329
 30
0.0
 11
25.628350
 21
-10.291037
 31
0.0
  0
LINE
  5
176
100
AcDbEntity
  8
Export
 62
7
100
AcDbLine
 10
25.628350
 20
-10.291037
 30
0.0
 11
25.762038
 21
-9.518478
 31
0.0
  0
LINE
  5
177
100
AcDbEntity
  8
Export
 62
7
100
AcDbLine
 10
25.762038
 20
-9.518478
 30
0.0
 11
25.831934
 21
-8.718004
 31
0.0
  0
LINE
  5
178
100
AcDbEntity
  8
Export
 62
7
100
AcDbLine
 10
25.831934
 20
-8.718004
 30
0.0
 11
25.834585
 21
-7.914969
 31
0.0
  0
LINE
  5
179
100
AcDbEntity
  8
Export
 62
7
100
AcDbLine
 10
25.834585
 20
-7.914969
 30
0.0
 11
25.766535
 21
-7.134727
 31
0.0
  0
LINE
  5
17a
100
AcDbEntity
  8
Export
 62
7
100
AcDbLine
 10
25.766535
 20
-7.134727
 30
0.0
 11
25.624330
 21
-6.402630
 31
0.0
  0
LINE
  5
17b
100
AcDbEntity
  8
Export
 62
7
100
AcDbLine
 10
25.624330
 20
-6.402630
 30
0.0
 11
25.404515
 21
-5.744032
 31
0.0
  0
LINE
  5
17c
100
AcDbEntity
  8
Export
 62
7
100
AcDbLine
 10
25.404515
 20
-5.744032
 30
0.0
 11
25.103636
 21
-5.184286
 31
0.0
  0
LINE
  5
17d
100
AcDbEntity
  8
Export
 62
7
100
AcDbLine
 10
25.103636
 20
-5.184286
 30
0.0
 11
24.718238
 21
-4.748745
 31
0.0
  0
LINE
  5
17e
100
AcDbEntity
  8
Export
 62
7
100
AcDbLine
 10
24.718238
 20
-4.748745
 30
0.0
 11
24.492764
 21
-4.585475
 31
0.0
  0
LINE
  5
17f
100
AcDbEntity
  8
Export
 62
7
100
AcDbLine
 10
24.492764
 20
-4.585475
 30
0.0
 11
24.244866
 21
-4.462764
 31
0.0
  0
LINE
  5
180
100
AcDbEntity
  8
Export
 62
7
100
AcDbLine
 10
24.244866
 20
-4.462764
 30
0.0
 11
23.974110
 21
-4.383781
 31
0.0
  0
LINE
  5
181
100
AcDbEntity
  8
Export
 62
7
100
AcDbLine
 10
23.974110
 20
-4.383781
 30
0.0
 11
23.680066
 21
-4.351695
 31
0.0
  0
LINE
  5
182
100
AcDbEntity
  8
Export
 62
7
100
AcDbLine
 10
23.680066
 20
-4.351695
 30
0.0
 11
9.272292
 21
-4.256134
 31
0.0
  0
LINE
  5
183
100
AcDbEntity
  8
Export
 62
7
100
AcDbLine
 10
9.272292
 20
-4.256134
 30
0.0
 11
9.424297
 21
-12.920407
 31
0.0
  0
LINE
  5
184
100
AcDbEntity
  8
Export
 62
7
100
AcDbLine
 10
6.076597
 20
18.693536
 30
0.0
 11
4.559653
 21
11.708536
 31
0.0
  0
LINE
  5
185
100
AcDbEntity
  8
Export
 62
7
100
AcDbLine
 10
4.559653
 20
11.708536
 30
0.0
 11
7.752292
 21
13.075550
 31
0.0
  0
LINE
  5
186
100
AcDbEntity
  8
Export
 62
7
100
AcDbLine
 10
7.752292
 20
13.075550
 30
0.0
 11
4.101042
 21
2.889092
 31
0.0
  0
LINE
  5
187
100
AcDbEntity
  8
Export
 62
7
100
AcDbLine
 10
4.101042
 20
2.889092
 30
0.0
 11
7.653514
 21
4.714717
 31
0.0
  0
LINE
  5
188
100
AcDbEntity
  8
Export
 62
7
100
AcDbLine
 10
7.653514
 20
4.714717
 30
0.0
 11
5.796139
 21
0.604856
 31
0.0
  0
LINE
  5
189
100
AcDbEntity
  8
Export
 62
7
100
AcDbLine
 10
5.796139
 20
0.604856
 30
0.0
 11
30.100764
 21
0.604856
 31
0.0
  0
LINE
  5
18a
100
AcDbEntity
  8
Export
 62
7
100
AcDbLine
 10
30.100764
 20
0.604856
 30
0.0
 11
30.699031
 21
0.941009
 31
0.0
  0
LINE
  5
18b
100
AcDbEntity
  8
Export
 62
7
100
AcDbLine
 10
30.699031
 20
0.941009
 30
0.0
 11
31.260921
 21
1.339161
 31
0.0
  0
LINE
  5
18c
100
AcDbEntity
  8
Export
 62
7
100
AcDbLine
 10
31.260921
 20
1.339161
 30
0.0
 11
31.785048
 21
1.794589
 31
0.0
  0
LINE
  5
18d
100
AcDbEntity
  8
Export
 62
7
100
AcDbLine
 10
31.785048
 20
1.794589
 30
0.0
 11
32.270026
 21
2.302570
 31
0.0
  0
LINE
  5
18e
100
AcDbEntity
  8
Export
 62
7
100
AcDbLine
 10
32.270026
 20
2.302570
 30
0.0
 11
32.714466
 21
2.858379
 31
0.0
  0
LINE
  5
18f
100
AcDbEntity
  8
Export
 62
7
100
AcDbLine
 10
32.714466
 20
2.858379
 30
0.0
 11
33.116983
 21
3.457294
 31
0.0
  0
LINE
  5
190
100
AcDbEntity
  8
Export
 62
7
100
AcDbLine
 10
33.116983
 20
3.457294
 30
0.0
 11
33.476190
 21
4.094590
 31
0.0
  0
LINE
  5
191
100
AcDbEntity
  8
Export
 62
7
100
AcDbLine
 10
33.476190
 20
4.094590
 30
0.0
 11
33.790699
 21
4.765544
 31
0.0
  0
LINE
  5
192
100
AcDbEntity
  8
Export
 62
7
100
AcDbLine
 10
33.790699
 20
4.765544
 30
0.0
 11
34.059125
 21
5.465433
 31
0.0
  0
LINE
  5
193
100
AcDbEntity
  8
Export
 62
7
100
AcDbLine
 10
34.059125
 20
5.465433
 30
0.0
 11
34.280079
 21
6.189534
 31
0.0
  0
LINE
  5
194
100
AcDbEntity
  8
Export
 62
7
100
AcDbLine
 10
34.280079
 20
6.189534
 30
0.0
 11
34.452176
 21
6.933122
 31
0.0
  0
LINE
  5
195
100
AcDbEntity
  8
Export
 62
7
100
AcDbLine
 10
34.452176
 20
6.933122
 30
0.0
 11
34.574029
 21
7.691473
 31
0.0
  0
LINE
  5
196
100
AcDbEntity
  8
Export
 62
7
100
AcDbLine
 10
34.574029
 20
7.691473
 30
0.0
 11
34.644250
 21
8.459866
 31
0.0
  0
LINE
  5
197
100
AcDbEntity
  8
Export
 62
7
100
AcDbLine
 10
34.644250
 20
8.459866
 30
0.0
 11
34.661453
 21
9.233575
 31
0.0
  0
LINE
  5
198
100
AcDbEntity
  8
Export
 62
7
100
AcDbLine
 10
34.661453
 20
9.233575
 30
0.0
 11
34.624250
 21
10.007878
 31
0.0
  0
LINE
  5
199
100
AcDbEntity
  8
Export
 62
7
100
AcDbLine
 10
34.624250
 20
10.007878
 30
0.0
 11
34.531257
 21
10.778051
 31
0.0
  0
LINE
  5
19a
100
AcDbEntity
  8
Export
 62
7
100
AcDbLine
 10
34.531257
 20
10.778051
 30
0.0
 11
34.381084
 21
11.539370
 31
0.0
  0
LINE
  5
19b
100
AcDbEntity
  8
Export
 62
7
100
AcDbLine
 10
34.381084
 20
11.539370
 30
0.0
 11
34.172346
 21
12.287112
 31
0.0
  0
LINE
  5
19c
100
AcDbEntity
  8
Export
 62
7
100
AcDbLine
 10
34.172346
 20
12.287112
 30
0.0
 11
33.903656
 21
13.016553
 31
0.0
  0
LINE
  5
19d
100
AcDbEntity
  8
Export
 62
7
100
AcDbLine
 10
33.903656
 20
13.016553
 30
0.0
 11
33.573627
 21
13.722970
 31
0.0
  0
LINE
  5
19e
100
AcDbEntity
  8
Export
 62
7
100
AcDbLine
 10
33.573627
 20
13.722970
 30
0.0
 11
33.180872
 21
14.401639
 31
0.0
  0
LINE
  5
19f
100
AcDbEntity
  8
Export
 62
7
100
AcDbLine
 10
33.180872
 20
14.401639
 30
0.0
 11
32.724004
 21
15.047837
 31
0.0
  0
LINE
  5
1a0
100
AcDbEntity
  8
Export
 62
7
100
AcDbLine
 10
32.724004
 20
15.047837
 30
0.0
 11
32.201637
 21
15.656840
 31
0.0
  0
LINE
  5
1a1
100
AcDbEntity
  8
Export
 62
7
100
AcDbLine
 10
32.201637
 20
15.656840
 30
0.0
 11
31.612383
 21
16.223925
 31
0.0
  0
LINE
  5
1a2
100
AcDbEntity
  8
Export
 62
7
100
AcDbLine
 10
31.612383
 20
16.223925
 30
0.0
 11
30.954857
 21
16.744368
 31
0.0
  0
LINE
  5
1a3
100
AcDbEntity
  8
Export
 62
7
100
AcDbLine
 10
30.954857
 20
16.744368
 30
0.0
 11
30.227670
 21
17.213445
 31
0.0
  0
LINE
  5
1a4
100
AcDbEntity
  8
Export
 62
7
100
AcDbLine
 10
30.227670
 20
17.213445
 30
0.0
 11
29.429436
 21
17.626434
 31
0.0
  0
LINE
  5
1a5
100
AcDbEntity
  8
Export
 62
7
100
AcDbLine
 10
29.429436
 20
17.626434
 30
0.0
 11
28.558769
 21
17.978609
 31
0.0
  0
LINE
  5
1a6
100
AcDbEntity
  8
Export
 62
7
100
AcDbLine
 10
28.558769
 20
17.978609
 30
0.0
 11
27.614281
 21
18.265249
 31
0.0
  0
LINE
  5
1a7
100
AcDbEntity
  8
Export
 62
7
100
AcDbLine
 10
27.614281
 20
18.265249
 30
0.0
 11
26.594587
 21
18.481629
 31
0.0
  0
LINE
  5
1a8
100
AcDbEntity
  8
Export
 62
7
100
AcDbLine
 10
26.594587
 20
18.481629
 30
0.0
 11
25.498298
 21
18.623027
 31
0.0
  0
LINE
  5
1a9
100
AcDbEntity
  8
Export
 62
7
100
AcDbLine
 10
25.498298
 20
18.623027
 30
0.0
 11
24.324028
 21
18.684717
 31
0.0
  0
LINE
  5
1aa
100
AcDbEntity
  8
Export
 62
7
100
AcDbLine
 10
24.324028
 20
18.684717
 30
0.0
 11
6.076597
 21
18.693522
 31
0.0
  0
LINE
  5
1ab
100
AcDbEntity
  8
Export
 62
7
100
AcDbLine
 10
6.076597
 20
18.693522
 30
0.0
 11
6.076597
 21
18.693536
 31
0.0
  0
LINE
  5
1ac
100
AcDbEntity
  8
Export
 62
7
100
AcDbLine
 10
22.613056
 20
11.752634
 30
0.0
 11
22.946254
 21
11.686667
 31
0.0
  0
LINE
  5
1ad
100
AcDbEntity
  8
Export
 62
7
100
AcDbLine
 10
22.946254
 20
11.686667
 30
0.0
 11
23.262200
 21
11.576058
 31
0.0
  0
LINE
  5
1ae
100
AcDbEntity
  8
Export
 62
7
100
AcDbLine
 10
23.262200
 20
11.576058
 30
0.0
 11
23.560505
 21
11.423944
 31
0.0
  0
LINE
  5
1af
100
AcDbEntity
  8
Export
 62
7
100
AcDbLine
 10
23.560505
 20
11.423944
 30
0.0
 11
23.840784
 21
11.233462
 31
0.0
  0
LINE
  5
1b0
100
AcDbEntity
  8
Export
 62
7
100
AcDbLine
 10
23.840784
 20
11.233462
 30
0.0
 11
24.345713
 21
10.749937
 31
0.0
  0
LINE
  5
1b1
100
AcDbEntity
  8
Export
 62
7
100
AcDbLine
 10
24.345713
 20
10.749937
 30
0.0
 11
24.773889
 21
10.150576
 31
0.0
  0
LINE
  5
1b2
100
AcDbEntity
  8
Export
 62
7
100
AcDbLine
 10
24.773889
 20
10.150576
 30
0.0
 11
25.122217
 21
9.460471
 31
0.0
  0
LINE
  5
1b3
100
AcDbEntity
  8
Export
 62
7
100
AcDbLine
 10
25.122217
 20
9.460471
 30
0.0
 11
25.387600
 21
8.704715
 31
0.0
  0
LINE
  5
1b4
100
AcDbEntity
  8
Export
 62
7
100
AcDbLine
 10
25.387600
 20
8.704715
 30
0.0
 11
25.566942
 21
7.908401
 31
0.0
  0
LINE
  5
1b5
100
AcDbEntity
  8
Export
 62
7
100
AcDbLine
 10
25.566942
 20
7.908401
 30
0.0
 11
25.657146
 21
7.096620
 31
0.0
  0
LINE
  5
1b6
100
AcDbEntity
  8
Export
 62
7
100
AcDbLine
 10
25.657146
 20
7.096620
 30
0.0
 11
25.655116
 21
6.294464
 31
0.0
  0
LINE
  5
1b7
100
AcDbEntity
  8
Export
 62
7
100
AcDbLine
 10
25.655116
 20
6.294464
 30
0.0
 11
25.557756
 21
5.527027
 31
0.0
  0
LINE
  5
1b8
100
AcDbEntity
  8
Export
 62
7
100
AcDbLine
 10
25.557756
 20
5.527027
 30
0.0
 11
25.361969
 21
4.819401
 31
0.0
  0
LINE
  5
1b9
100
AcDbEntity
  8
Export
 62
7
100
AcDbLine
 10
25.361969
 20
4.819401
 30
0.0
 11
25.064660
 21
4.196677
 31
0.0
  0
LINE
  5
1ba
100
AcDbEntity
  8
Export
 62
7
100
AcDbLine
 10
25.064660
 20
4.196677
 30
0.0
 11
24.662731
 21
3.683949
 31
0.0
  0
LINE
  5
1bb
100
AcDbEntity
  8
Export
 62
7
100
AcDbLine
 10
24.662731
 20
3.683949
 30
0.0
 11
24.421566
 21
3.476675
 31
0.0
  0
LINE
  5
1bc
100
AcDbEntity
  8
Export
 62
7
100
AcDbLine
 10
24.421566
 20
3.476675
 30
0.0
 11
24.153086
 21
3.306309
 31
0.0
  0
LINE
  5
1bd
100
AcDbEntity
  8
Export
 62
7
100
AcDbLine
 10
24.153086
 20
3.306309
 30
0.0
 11
23.856902
 21
3.175988
 31
0.0
  0
LINE
  5
1be
100
AcDbEntity
  8
Export
 62
7
100
AcDbLine
 10
23.856902
 20
3.175988
 30
0.0
 11
23.532629
 21
3.088849
 31
0.0
  0
LINE
  5
1bf
100
AcDbEntity
  8
Export
 62
7
100
AcDbLine
 10
23.532629
 20
3.088849
 30
0.0
 11
23.179879
 21
3.048028
 31
0.0
  0
LINE
  5
1c0
100
AcDbEntity
  8
Export
 62
7
100
AcDbLine
 10
23.179879
 20
3.048028
 30
0.0
 11
22.798264
 21
3.056661
 31
0.0
  0
LINE
  5
1c1
100
AcDbEntity
  8
Export
 62
7
100
AcDbLine
 10
22.798264
 20
3.056661
 30
0.0
 11
9.427986
 21
3.065467
 31
0.0
  0
LINE
  5
1c2
100
AcDbEntity
  8
Export
 62
7
100
AcDbLine
 10
9.427986
 20
3.065467
 30
0.0
 11
9.427986
 21
11.708522
 31
0.0
  0
LINE
  5
1c3
100
AcDbEntity
  8
Export
 62
7
100
AcDbLine
 10
9.427986
 20
11.708522
 30
0.0
 11
22.613056
 21
11.752620
 31
0.0
  0
LINE
  5
1c4
100
AcDbEntity
  8
Export
 62
7
100
AcDbLine
 10
22.613056
 20
11.752620
 30
0.0
 11
22.613056
 21
11.752634
 31
0.0
  0
LINE
  5
1c5
100
AcDbEntity
  8
Export
 62
7
100
AcDbLine
 10
-28.707117
 20
18.713918
 30
0.0
 11
-20.323090
 21
18.696590
 31
0.0
  0
LINE
  5
1c6
100
AcDbEntity
  8
Export
 62
7
100
AcDbLine
 10
-20.323090
 20
18.696590
 30
0.0
 11
-20.329525
 21
3.500569
 31
0.0
  0
LINE
  5
1c7
100
AcDbEntity
  8
Export
 62
7
100
AcDbLine
 10
-20.329525
 20
3.500569
 30
0.0
 11
-6.351520
 21
3.513438
 31
0.0
  0
LINE
  5
1c8
100
AcDbEntity
  8
Export
 62
7
100
AcDbLine
 10
-6.351520
 20
3.513438
 30
0.0
 11
-6.401529
 21
18.696590
 31
0.0
  0
LINE
  5
1c9
100
AcDbEntity
  8
Export
 62
7
100
AcDbLine
 10
-6.401529
 20
18.696590
 30
0.0
 11
-1.824057
 21
18.763928
 31
0.0
  0
LINE
  5
1ca
100
AcDbEntity
  8
Export
 62
7
100
AcDbLine
 10
-1.824057
 20
18.763928
 30
0.0
 11
-4.723042
 21
5.747961
 31
0.0
  0
LINE
  5
1cb
100
AcDbEntity
  8
Export
 62
7
100
AcDbLine
 10
-4.723042
 20
5.747961
 30
0.0
 11
-0.760024
 21
7.752244
 31
0.0
  0
LINE
  5
1cc
100
AcDbEntity
  8
Export
 62
7
100
AcDbLine
 10
-0.760024
 20
7.752244
 30
0.0
 11
-2.736086
 21
0.152005
 31
0.0
  0
LINE
  5
1cd
100
AcDbEntity
  8
Export
 62
7
100
AcDbLine
 10
-2.736086
 20
0.152005
 30
0.0
 11
-28.728904
 21
0.134676
 31
0.0
  0
LINE
  5
1ce
100
AcDbEntity
  8
Export
 62
7
100
AcDbLine
 10
-28.728904
 20
0.134676
 30
0.0
 11
-28.707117
 21
18.713918
 31
0.0
  0
LINE
  5
1cf
100
AcDbEntity
  8
Export
 62
7
100
AcDbLine
 10
-36.937163
 20
-6.073755
 30
0.0
 11
-36.755060
 21
-7.335934
 31
0.0
  0
LINE
  5
1d0
100
AcDbEntity
  8
Export
 62
7
100
AcDbLine
 10
-36.755060
 20
-7.335934
 30
0.0
 11
-36.520369
 21
-8.587404
 31
0.0
  0
LINE
  5
1d1
100
AcDbEntity
  8
Export
 62
7
100
AcDbLine
 10
-36.520369
 20
-8.587404
 30
0.0
 11
-36.235173
 21
-9.826983
 31
0.0
  0
LINE
  5
1d2
100
AcDbEntity
  8
Export
 62
7
100
AcDbLine
 10
-36.235173
 20
-9.826983
 30
0.0
 11
-35.901560
 21
-11.053485
 31
0.0
  0
LINE
  5
1d3
100
AcDbEntity
  8
Export
 62
7
100
AcDbLine
 10
-35.901560
 20
-11.053485
 30
0.0
 11
-35.521615
 21
-12.265729
 31
0.0
  0
LINE
  5
1d4
100
AcDbEntity
  8
Export
 62
7
100
AcDbLine
 10
-35.521615
 20
-12.265729
 30
0.0
 11
-35.097424
 21
-13.462529
 31
0.0
  0
LINE
  5
1d5
100
AcDbEntity
  8
Export
 62
7
100
AcDbLine
 10
-35.097424
 20
-13.462529
 30
0.0
 11
-34.631074
 21
-14.642703
 31
0.0
  0
LINE
  5
1d6
100
AcDbEntity
  8
Export
 62
7
100
AcDbLine
 10
-34.631074
 20
-14.642703
 30
0.0
 11
-34.124649
 21
-15.805066
 31
0.0
  0
LINE
  5
1d7
100
AcDbEntity
  8
Export
 62
7
100
AcDbLine
 10
-34.124649
 20
-15.805066
 30
0.0
 11
-32.999922
 21
-18.071628
 31
0.0
  0
LINE
  5
1d8
100
AcDbEntity
  8
Export
 62
7
100
AcDbLine
 10
-32.999922
 20
-18.071628
 30
0.0
 11
-31.739932
 21
-20.252744
 31
0.0
  0
LINE
  5
1d9
100
AcDbEntity
  8
Export
 62
7
100
AcDbLine
 10
-31.739932
 20
-20.252744
 30
0.0
 11
-30.361365
 21
-22.338947
 31
0.0
  0
LINE
  5
1da
100
AcDbEntity
  8
Export
 62
7
100
AcDbLine
 10
-30.361365
 20
-22.338947
 30
0.0
 11
-28.880909
 21
-24.320765
 31
0.0
  0
LINE
  5
1db
100
AcDbEntity
  8
Export
 62
7
100
AcDbLine
 10
-28.880909
 20
-24.320765
 30
0.0
 11
30.400958
 21
-24.320765
 31
0.0
  0
LINE
  5
1dc
100
AcDbEntity
  8
Export
 62
7
100
AcDbLine
 10
30.400958
 20
-24.320765
 30
0.0
 11
31.206764
 21
-23.530327
 31
0.0
  0
LINE
  5
1dd
100
AcDbEntity
  8
Export
 62
7
100
AcDbLine
 10
31.206764
 20
-23.530327
 30
0.0
 11
31.981137
 21
-22.696690
 31
0.0
  0
LINE
  5
1de
100
AcDbEntity
  8
Export
 62
7
100
AcDbLine
 10
31.981137
 20
-22.696690
 30
0.0
 11
32.723141
 21
-21.819244
 31
0.0
  0
LINE
  5
1df
100
AcDbEntity
  8
Export
 62
7
100
AcDbLine
 10
32.723141
 20
-21.819244
 30
0.0
 11
33.431840
 21
-20.897376
 31
0.0
  0
LINE
  5
1e0
100
AcDbEntity
  8
Export
 62
7
100
AcDbLine
 10
33.431840
 20
-20.897376
 30
0.0
 11
34.106299
 21
-19.930475
 31
0.0
  0
LINE
  5
1e1
100
AcDbEntity
  8
Export
 62
7
100
AcDbLine
 10
34.106299
 20
-19.930475
 30
0.0
 11
34.745582
 21
-18.917929
 31
0.0
  0
LINE
  5
1e2
100
AcDbEntity
  8
Export
 62
7
100
AcDbLine
 10
34.745582
 20
-18.917929
 30
0.0
 11
35.348753
 21
-17.859128
 31
0.0
  0
LINE
  5
1e3
100
AcDbEntity
  8
Export
 62
7
100
AcDbLine
 10
35.348753
 20
-17.859128
 30
0.0
 11
35.914877
 21
-16.753460
 31
0.0
  0
LINE
  5
1e4
100
AcDbEntity
  8
Export
 62
7
100
AcDbLine
 10
35.914877
 20
-16.753460
 30
0.0
 11
36.443018
 21
-15.600314
 31
0.0
  0
LINE
  5
1e5
100
AcDbEntity
  8
Export
 62
7
100
AcDbLine
 10
36.443018
 20
-15.600314
 30
0.0
 11
36.932241
 21
-14.399077
 31
0.0
  0
LINE
  5
1e6
100
AcDbEntity
  8
Export
 62
7
100
AcDbLine
 10
36.932241
 20
-14.399077
 30
0.0
 11
37.381609
 21
-13.149139
 31
0.0
  0
LINE
  5
1e7
100
AcDbEntity
  8
Export
 62
7
100
AcDbLine
 10
37.381609
 20
-13.149139
 30
0.0
 11
37.790188
 21
-11.849888
 31
0.0
  0
LINE
  5
1e8
100
AcDbEntity
  8
Export
 62
7
100
AcDbLine
 10
37.790188
 20
-11.849888
 30
0.0
 11
38.157041
 21
-10.500713
 31
0.0
  0
LINE
  5
1e9
100
AcDbEntity
  8
Export
 62
7
100
AcDbLine
 10
38.157041
 20
-10.500713
 30
0.0
 11
38.481234
 21
-9.101002
 31
0.0
  0
LINE
  5
1ea
100
AcDbEntity
  8
Export
 62
7
100
AcDbLine
 10
38.481234
 20
-9.101002
 30
0.0
 11
38.761829
 21
-7.650145
 31
0.0
  0
LINE
  5
1eb
100
AcDbEntity
  8
Export
 62
7
100
AcDbLine
 10
38.761829
 20
-7.650145
 30
0.0
 11
38.997893
 21
-6.147528
 31
0.0
  0
LINE
  5
1ec
100
AcDbEntity
  8
Export
 62
7
100
AcDbLine
 10
38.997893
 20
-6.147528
 30
0.0
 11
35.113104
 21
-2.217191
 31
0.0
  0
LINE
  5
1ed
100
AcDbEntity
  8
Export
 62
7
100
AcDbLine
 10
35.113104
 20
-2.217191
 30
0.0
 11
35.091316
 21
1.194252
 31
0.0
  0
LINE
  5
1ee
100
AcDbEntity
  8
Export
 62
7
100
AcDbLine
 10
35.091316
 20
1.194252
 30
0.0
 11
39.082557
 21
5.135482
 31
0.0
  0
LINE
  5
1ef
100
AcDbEntity
  8
Export
 62
7
100
AcDbLine
 10
39.082557
 20
5.135482
 30
0.0
 11
38.713328
 21
6.832094
 31
0.0
  0
LINE
  5
1f0
100
AcDbEntity
  8
Export
 62
7
100
AcDbLine
 10
38.713328
 20
6.832094
 30
0.0
 11
38.299913
 21
8.447162
 31
0.0
  0
LINE
  5
1f1
100
AcDbEntity
  8
Export
 62
7
100
AcDbLine
 10
38.299913
 20
8.447162
 30
0.0
 11
37.847370
 21
9.982860
 31
0.0
  0
LINE
  5
1f2
100
AcDbEntity
  8
Export
 62
7
100
AcDbLine
 10
37.847370
 20
9.982860
 30
0.0
 11
37.360757
 21
11.441360
 31
0.0
  0
LINE
  5
1f3
100
AcDbEntity
  8
Export
 62
7
100
AcDbLine
 10
37.360757
 20
11.441360
 30
0.0
 11
36.845131
 21
12.824834
 31
0.0
  0
LINE
  5
1f4
100
AcDbEntity
  8
Export
 62
7
100
AcDbLine
 10
36.845131
 20
12.824834
 30
0.0
 11
36.305550
 21
14.135455
 31
0.0
  0
LINE
  5
1f5
100
AcDbEntity
  8
Export
 62
7
100
AcDbLine
 10
36.305550
 20
14.135455
 30
0.0
 11
35.747072
 21
15.375396
 31
0.0
  0
LINE
  5
1f6
100
AcDbEntity
  8
Export
 62
7
100
AcDbLine
 10
35.747072
 20
15.375396
 30
0.0
 11
35.174755
 21
16.546830
 31
0.0
  0
LINE
  5
1f7
100
AcDbEntity
  8
Export
 62
7
100
AcDbLine
 10
35.174755
 20
16.546830
 30
0.0
 11
34.008836
 21
18.692865
 31
0.0
  0
LINE
  5
1f8
100
AcDbEntity
  8
Export
 62
7
100
AcDbLine
 10
34.008836
 20
18.692865
 30
0.0
 11
32.848256
 21
20.590942
 31
0.0
  0
LINE
  5
1f9
100
AcDbEntity
  8
Export
 62
7
100
AcDbLine
 10
32.848256
 20
20.590942
 30
0.0
 11
31.733477
 21
22.258442
 31
0.0
  0
LINE
  5
1fa
100
AcDbEntity
  8
Export
 62
7
100
AcDbLine
 10
31.733477
 20
22.258442
 30
0.0
 11
30.704962
 21
23.712746
 31
0.0
  0
LINE
  5
1fb
100
AcDbEntity
  8
Export
 62
7
100
AcDbLine
 10
30.704962
 20
23.712746
 30
0.0
 11
-28.846255
 21
23.712746
 31
0.0
  0
LINE
  5
1fc
100
AcDbEntity
  8
Export
 62
7
100
AcDbLine
 10
-28.846255
 20
23.712746
 30
0.0
 11
-30.377945
 21
21.364325
 31
0.0
  0
LINE
  5
1fd
100
AcDbEntity
  8
Export
 62
7
100
AcDbLine
 10
-30.377945
 20
21.364325
 30
0.0
 11
-31.769650
 21
19.026268
 31
0.0
  0
LINE
  5
1fe
100
AcDbEntity
  8
Export
 62
7
100
AcDbLine
 10
-31.769650
 20
19.026268
 30
0.0
 11
-33.015131
 21
16.696722
 31
0.0
  0
LINE
  5
1ff
100
AcDbEntity
  8
Export
 62
7
100
AcDbLine
 10
-33.015131
 20
16.696722
 30
0.0
 11
-34.108146
 21
14.373830
 31
0.0
  0
LINE
  5
200
100
AcDbEntity
  8
Export
 62
7
100
AcDbLine
 10
-34.108146
 20
14.373830
 30
0.0
 11
-35.042452
 21
12.055738
 31
0.0
  0
LINE
  5
201
100
AcDbEntity
  8
Export
 62
7
100
AcDbLine
 10
-35.042452
 20
12.055738
 30
0.0
 11
-35.811809
 21
9.740592
 31
0.0
  0
LINE
  5
202
100
AcDbEntity
  8
Export
 62
7
100
AcDbLine
 10
-35.811809
 20
9.740592
 30
0.0
 11
-36.132682
 21
8.583544
 31
0.0
  0
LINE
  5
203
100
AcDbEntity
  8
Export
 62
7
100
AcDbLine
 10
-36.132682
 20
8.583544
 30
0.0
 11
-36.409976
 21
7.426537
 31
0.0
  0
LINE
  5
204
100
AcDbEntity
  8
Export
 62
7
100
AcDbLine
 10
-36.409976
 20
7.426537
 30
0.0
 11
-36.642913
 21
6.269340
 31
0.0
  0
LINE
  5
205
100
AcDbEntity
  8
Export
 62
7
100
AcDbLine
 10
-36.642913
 20
6.269340
 30
0.0
 11
-36.830711
 21
5.111719
 31
0.0
  0
LINE
  5
206
100
AcDbEntity
  8
Export
 62
7
100
AcDbLine
 10
-36.830711
 20
5.111719
 30
0.0
 11
-33.441056
 21
1.114044
 31
0.0
  0
LINE
  5
207
100
AcDbEntity
  8
Export
 62
7
100
AcDbLine
 10
-33.441056
 20
1.114044
 30
0.0
 11
-33.447490
 21
-2.380090
 31
0.0
  0
LINE
  5
208
100
AcDbEntity
  8
Export
 62
7
100
AcDbLine
 10
-33.447490
 20
-2.380090
 30
0.0
 11
-36.937163
 21
-6.073755
 31
0.0
  0
LINE
  5
209
100
AcDbEntity
  8
Export
 62
7
100
AcDbLine
 10
-29.944943
 20
26.600839
 30
0.0
 11
32.377019
 21
26.600839
 31
0.0
  0
LINE
  5
20a
100
AcDbEntity
  8
Export
 62
7
100
AcDbLine
 10
32.377019
 20
26.600839
 30
0.0
 11
33.885522
 21
24.342157
 31
0.0
  0
LINE
  5
20b
100
AcDbEntity
  8
Export
 62
7
100
AcDbLine
 10
33.885522
 20
24.342157
 30
0.0
 11
35.379914
 21
22.011936
 31
0.0
  0
LINE
  5
20c
100
AcDbEntity
  8
Export
 62
7
100
AcDbLine
 10
35.379914
 20
22.011936
 30
0.0
 11
36.828378
 21
19.566887
 31
0.0
  0
LINE
  5
20d
100
AcDbEntity
  8
Export
 62
7
100
AcDbLine
 10
36.828378
 20
19.566887
 30
0.0
 11
37.525445
 21
18.287775
 31
0.0
  0
LINE
  5
20e
100
AcDbEntity
  8
Export
 62
7
100
AcDbLine
 10
37.525445
 20
18.287775
 30
0.0
 11
38.199098
 21
16.963722
 31
0.0
  0
LINE
  5
20f
100
AcDbEntity
  8
Export
 62
7
100
AcDbLine
 10
38.199098
 20
16.963722
 30
0.0
 11
38.845362
 21
15.589319
 31
0.0
  0
LINE
  5
210
100
AcDbEntity
  8
Export
 62
7
100
AcDbLine
 10
38.845362
 20
15.589319
 30
0.0
 11
39.460259
 21
14.159153
 31
0.0
  0
LINE
  5
211
100
AcDbEntity
  8
Export
 62
7
100
AcDbLine
 10
39.460259
 20
14.159153
 30
0.0
 11
40.039812
 21
12.667813
 31
0.0
  0
LINE
  5
212
100
AcDbEntity
  8
Export
 62
7
100
AcDbLine
 10
40.039812
 20
12.667813
 30
0.0
 11
40.580044
 21
11.109890
 31
0.0
  0
LINE
  5
213
100
AcDbEntity
  8
Export
 62
7
100
AcDbLine
 10
40.580044
 20
11.109890
 30
0.0
 11
41.076979
 21
9.479971
 31
0.0
  0
LINE
  5
214
100
AcDbEntity
  8
Export
 62
7
100
AcDbLine
 10
41.076979
 20
9.479971
 30
0.0
 11
41.526638
 21
7.772645
 31
0.0
  0
LINE
  5
215
100
AcDbEntity
  8
Export
 62
7
100
AcDbLine
 10
41.526638
 20
7.772645
 30
0.0
 11
41.925046
 21
5.982501
 31
0.0
  0
LINE
  5
216
100
AcDbEntity
  8
Export
 62
7
100
AcDbLine
 10
41.925046
 20
5.982501
 30
0.0
 11
42.268225
 21
4.104129
 31
0.0
  0
LINE
  5
217
100
AcDbEntity
  8
Export
 62
7
100
AcDbLine
 10
42.268225
 20
4.104129
 30
0.0
 11
37.716745
 21
-0.436457
 31
0.0
  0
LINE
  5
218
100
AcDbEntity
  8
Export
 62
7
100
AcDbLine
 10
37.716745
 20
-0.436457
 30
0.0
 11
42.229109
 21
-4.892376
 31
0.0
  0
LINE
  5
219
100
AcDbEntity
  8
Export
 62
7
100
AcDbLine
 10
42.229109
 20
-4.892376
 30
0.0
 11
41.997786
 21
-6.747898
 31
0.0
  0
LINE
  5
21a
100
AcDbEntity
  8
Export
 62
7
100
AcDbLine
 10
41.997786
 20
-6.747898
 30
0.0
 11
41.703803
 21
-8.525447
 31
0.0
  0
LINE
  5
21b
100
AcDbEntity
  8
Export
 62
7
100
AcDbLine
 10
41.703803
 20
-8.525447
 30
0.0
 11
41.349602
 21
-10.228839
 31
0.0
  0
LINE
  5
21c
100
AcDbEntity
  8
Export
 62
7
100
AcDbLine
 10
41.349602
 20
-10.228839
 30
0.0
 11
40.937626
 21
-11.861888
 31
0.0
  0
LINE
  5
21d
100
AcDbEntity
  8
Export
 62
7
100
AcDbLine
 10
40.937626
 20
-11.861888
 30
0.0
 11
40.470321
 21
-13.428412
 31
0.0
  0
LINE
  5
21e
100
AcDbEntity
  8
Export
 62
7
100
AcDbLine
 10
40.470321
 20
-13.428412
 30
0.0
 11
39.950128
 21
-14.932227
 31
0.0
  0
LINE
  5
21f
100
AcDbEntity
  8
Export
 62
7
100
AcDbLine
 10
39.950128
 20
-14.932227
 30
0.0
 11
39.379493
 21
-16.377147
 31
0.0
  0
LINE
  5
220
100
AcDbEntity
  8
Export
 62
7
100
AcDbLine
 10
39.379493
 20
-16.377147
 30
0.0
 11
38.760858
 21
-17.766990
 31
0.0
  0
LINE
  5
221
100
AcDbEntity
  8
Export
 62
7
100
AcDbLine
 10
38.760858
 20
-17.766990
 30
0.0
 11
38.096666
 21
-19.105572
 31
0.0
  0
LINE
  5
222
100
AcDbEntity
  8
Export
 62
7
100
AcDbLine
 10
38.096666
 20
-19.105572
 30
0.0
 11
37.389362
 21
-20.396707
 31
0.0
  0
LINE
  5
223
100
AcDbEntity
  8
Export
 62
7
100
AcDbLine
 10
37.389362
 20
-20.396707
 30
0.0
 11
36.641390
 21
-21.644214
 31
0.0
  0
LINE
  5
224
100
AcDbEntity
  8
Export
 62
7
100
AcDbLine
 10
36.641390
 20
-21.644214
 30
0.0
 11
35.855192
 21
-22.851906
 31
0.0
  0
LINE
  5
225
100
AcDbEntity
  8
Export
 62
7
100
AcDbLine
 10
35.855192
 20
-22.851906
 30
0.0
 11
35.033212
 21
-24.023601
 31
0.0
  0
LINE
  5
226
100
AcDbEntity
  8
Export
 62
7
100
AcDbLine
 10
35.033212
 20
-24.023601
 30
0.0
 11
34.177894
 21
-25.163114
 31
0.0
  0
LINE
  5
227
100
AcDbEntity
  8
Export
 62
7
100
AcDbLine
 10
34.177894
 20
-25.163114
 30
0.0
 11
32.377019
 21
-27.360860
 31
0.0
  0
LINE
  5
228
100
AcDbEntity
  8
Export
 62
7
100
AcDbLine
 10
32.377019
 20
-27.360860
 30
0.0
 11
-30.248953
 21
-27.360860
 31
0.0
  0
LINE
  5
229
100
AcDbEntity
  8
Export
 62
7
100
AcDbLine
 10
-30.248953
 20
-27.360860
 30
0.0
 11
-31.157192
 21
-26.364765
 31
0.0
  0
LINE
  5
22a
100
AcDbEntity
  8
Export
 62
7
100
AcDbLine
 10
-31.157192
 20
-26.364765
 30
0.0
 11
-32.034374
 21
-25.317269
 31
0.0
  0
LINE
  5
22b
100
AcDbEntity
  8
Export
 62
7
100
AcDbLine
 10
-32.034374
 20
-25.317269
 30
0.0
 11
-32.878848
 21
-24.218217
 31
0.0
  0
LINE
  5
22c
100
AcDbEntity
  8
Export
 62
7
100
AcDbLine
 10
-32.878848
 20
-24.218217
 30
0.0
 11
-33.688963
 21
-23.067454
 31
0.0
  0
LINE
  5
22d
100
AcDbEntity
  8
Export
 62
7
100
AcDbLine
 10
-33.688963
 20
-23.067454
 30
0.0
 11
-34.463068
 21
-21.864823
 31
0.0
  0
LINE
  5
22e
100
AcDbEntity
  8
Export
 62
7
100
AcDbLine
 10
-34.463068
 20
-21.864823
 30
0.0
 11
-35.199511
 21
-20.610170
 31
0.0
  0
LINE
  5
22f
100
AcDbEntity
  8
Export
 62
7
100
AcDbLine
 10
-35.199511
 20
-20.610170
 30
0.0
 11
-35.896642
 21
-19.303339
 31
0.0
  0
LINE
  5
230
100
AcDbEntity
  8
Export
 62
7
100
AcDbLine
 10
-35.896642
 20
-19.303339
 30
0.0
 11
-36.552807
 21
-17.944174
 31
0.0
  0
LINE
  5
231
100
AcDbEntity
  8
Export
 62
7
100
AcDbLine
 10
-36.552807
 20
-17.944174
 30
0.0
 11
-37.166358
 21
-16.532519
 31
0.0
  0
LINE
  5
232
100
AcDbEntity
  8
Export
 62
7
100
AcDbLine
 10
-37.166358
 20
-16.532519
 30
0.0
 11
-37.735641
 21
-15.068219
 31
0.0
  0
LINE
  5
233
100
AcDbEntity
  8
Export
 62
7
100
AcDbLine
 10
-37.735641
 20
-15.068219
 30
0.0
 11
-38.259006
 21
-13.551119
 31
0.0
  0
LINE
  5
234
100
AcDbEntity
  8
Export
 62
7
100
AcDbLine
 10
-38.259006
 20
-13.551119
 30
0.0
 11
-38.734801
 21
-11.981063
 31
0.0
  0
LINE
  5
235
100
AcDbEntity
  8
Export
 62
7
100
AcDbLine
 10
-38.734801
 20
-11.981063
 30
0.0
 11
-39.161376
 21
-10.357894
 31
0.0
  0
LINE
  5
236
100
AcDbEntity
  8
Export
 62
7
100
AcDbLine
 10
-39.161376
 20
-10.357894
 30
0.0
 11
-39.537079
 21
-8.681459
 31
0.0
  0
LINE
  5
237
100
AcDbEntity
  8
Export
 62
7
100
AcDbLine
 10
-39.537079
 20
-8.681459
 30
0.0
 11
-39.860258
 21
-6.951600
 31
0.0
  0
LINE
  5
238
100
AcDbEntity
  8
Export
 62
7
100
AcDbLine
 10
-39.860258
 20
-6.951600
 30
0.0
 11
-40.129262
 21
-5.168163
 31
0.0
  0
LINE
  5
239
100
AcDbEntity
  8
Export
 62
7
100
AcDbLine
 10
-40.129262
 20
-5.168163
 30
0.0
 11
-35.949131
 21
-0.532017
 31
0.0
  0
LINE
  5
23a
100
AcDbEntity
  8
Export
 62
7
100
AcDbLine
 10
-35.949131
 20
-0.532017
 30
0.0
 11
-39.977258
 21
4.104129
 31
0.0
  0
LINE
  5
23b
100
AcDbEntity
  8
Export
 62
7
100
AcDbLine
 10
-39.977258
 20
4.104129
 30
0.0
 11
-39.754186
 21
5.800860
 31
0.0
  0
LINE
  5
23c
100
AcDbEntity
  8
Export
 62
7
100
AcDbLine
 10
-39.754186
 20
5.800860
 30
0.0
 11
-39.463581
 21
7.437744
 31
0.0
  0
LINE
  5
23d
100
AcDbEntity
  8
Export
 62
7
100
AcDbLine
 10
-39.463581
 20
7.437744
 30
0.0
 11
-39.108373
 21
9.019301
 31
0.0
  0
LINE
  5
23e
100
AcDbEntity
  8
Export
 62
7
100
AcDbLine
 10
-39.108373
 20
9.019301
 30
0.0
 11
-38.691492
 21
10.550048
 31
0.0
  0
LINE
  5
23f
100
AcDbEntity
  8
Export
 62
7
100
AcDbLine
 10
-38.691492
 20
10.550048
 30
0.0
 11
-38.215869
 21
12.034505
 31
0.0
  0
LINE
  5
240
100
AcDbEntity
  8
Export
 62
7
100
AcDbLine
 10
-38.215869
 20
12.034505
 30
0.0
 11
-37.684432
 21
13.477192
 31
0.0
  0
LINE
  5
241
100
AcDbEntity
  8
Export
 62
7
100
AcDbLine
 10
-37.684432
 20
13.477192
 30
0.0
 11
-37.100113
 21
14.882626
 31
0.0
  0
LINE
  5
242
100
AcDbEntity
  8
Export
 62
7
100
AcDbLine
 10
-37.100113
 20
14.882626
 30
0.0
 11
-36.465840
 21
16.255328
 31
0.0
  0
LINE
  5
243
100
AcDbEntity
  8
Export
 62
7
100
AcDbLine
 10
-36.465840
 20
16.255328
 30
0.0
 11
-35.784544
 21
17.599816
 31
0.0
  0
LINE
  5
244
100
AcDbEntity
  8
Export
 62
7
100
AcDbLine
 10
-35.784544
 20
17.599816
 30
0.0
 11
-35.059155
 21
18.920609
 31
0.0
  0
LINE
  5
245
100
AcDbEntity
  8
Export
 62
7
100
AcDbLine
 10
-35.059155
 20
18.920609
 30
0.0
 11
-33.487818
 21
21.509186
 31
0.0
  0
LINE
  5
246
100
AcDbEntity
  8
Export
 62
7
100
AcDbLine
 10
-33.487818
 20
21.509186
 30
0.0
 11
-31.775267
 21
24.057212
 31
0.0
  0
LINE
  5
247
100
AcDbEntity
  8
Export
 62
7
100
AcDbLine
 10
-31.775267
 20
24.057212
 30
0.0
 11
-29.944943
 21
26.600839
 31
0.0
  0
LINE
  5
248
100
AcDbEntity
  8
Export
 62
7
100
AcDbLine
 10
-29.944943
 20
26.600839
 30
0.0
 11
-29.944943
 21
26.600839
 31
0.0
  0
ENDSEC
  0
SECTION
  2
OBJECTS
  0
DICTIONARY
  5
C
330
0
100
AcDbDictionary
  3
ACAD_GROUP
350
D
  3
ACAD_MLINESTYLE
350
17
  0
DICTIONARY
  5
D
330
C
100
AcDbDictionary
  0
DICTIONARY
  5
1A
330
C
100
AcDbDictionary
  0
DICTIONARY
  5
17
330
C
100
AcDbDictionary
  3
STANDARD
350
18
  0
DICTIONARY
  5
19
330
C
100
AcDbDictionary
  0
ENDSEC
  0
EOF
