999
DXF created by Inkscape
  0
SECTION
  2
HEADER
  9
$ACADVER
  1
AC1014
  9
$HANDSEED
  5
FFFF
  9
$MEASUREMENT
 70
     1
  0
ENDSEC
  0
SECTION
  2
TABLES
  0
TABLE
  2
VPORT
  5
8
330
0
100
AcDbSymbolTable
 70
     4
  0
VPORT
  5
2E
330
8
100
AcDbSymbolTableRecord
100
AcDbViewportTableRecord
  2
*ACTIVE
 70
     0
 10
0.0
 20
0.0
 11
1.0
 21
1.0
 12
210.0
 22
148.5
 13
0.0
 23
0.0
 14
10.0
 24
10.0
 15
10.0
 25
10.0
 16
0.0
 26
0.0
 36
1.0
 17
0.0
 27
0.0
 37
0.0
 40
341.0
 41
1.24
 42
50.0
 43
0.0
 44
0.0
 50
0.0
 51
0.0
 71
     0
 72
   100
 73
     1
 74
     3
 75
     0
 76
     0
 77
     0
 78
     0
  0
ENDTAB
  0
TABLE
  2
LTYPE
  5
5
330
0
100
AcDbSymbolTable
 70
     1
  0
LTYPE
  5
14
330
5
100
AcDbSymbolTableRecord
100
AcDbLinetypeTableRecord
  2
BYBLOCK
 70
     0
  3

 72
    65
 73
     0
 40
0.0
  0
LTYPE
  5
15
330
5
100
AcDbSymbolTableRecord
100
AcDbLinetypeTableRecord
  2
BYLAYER
 70
     0
  3

 72
    65
 73
     0
 40
0.0
  0
LTYPE
  5
16
330
5
100
AcDbSymbolTableRecord
100
AcDbLinetypeTableRecord
  2
CONTINUOUS
 70
     0
  3
Solid line
 72
    65
 73
     0
 40
0.0
  0
ENDTAB
  0
TABLE
  2
LAYER
  5
2
100
AcDbSymbolTable
 70
4
  0
LAYER
  5
50
100
AcDbSymbolTableRecord
100
AcDbLayerTableRecord
  2
0
 70
0
  6
CONTINUOUS
  0
LAYER
  5
51
100
AcDbSymbolTableRecord
100
AcDbLayerTableRecord
  2
Reference
 70
0
  6
CONTINUOUS
  0
LAYER
  5
52
100
AcDbSymbolTableRecord
100
AcDbLayerTableRecord
  2
Tracing
 70
0
  6
CONTINUOUS
  0
LAYER
  5
53
100
AcDbSymbolTableRecord
100
AcDbLayerTableRecord
  2
Export
 70
0
  6
CONTINUOUS
  0
ENDTAB
  0
TABLE
  2
STYLE
  5
3
330
0
100
AcDbSymbolTable
 70
     1
  0
STYLE
  5
11
330
3
100
AcDbSymbolTableRecord
100
AcDbTextStyleTableRecord
  2
STANDARD
 70
     0
 40
0.0
 41
1.0
 50
0.0
 71
     0
 42
2.5
  3
txt
  4

  0
ENDTAB
  0
TABLE
  2
VIEW
  5
6
330
0
100
AcDbSymbolTable
 70
     0
  0
ENDTAB
  0
TABLE
  2
UCS
  5
7
330
0
100
AcDbSymbolTable
 70
     0
  0
ENDTAB
  0
TABLE
  2
APPID
  5
9
330
0
100
AcDbSymbolTable
 70
     2
  0
APPID
  5
12
330
9
100
AcDbSymbolTableRecord
100
AcDbRegAppTableRecord
  2
ACAD
 70
     0
  0
ENDTAB
  0
TABLE
  2
DIMSTYLE
  5
A
330
0
100
AcDbSymbolTable
 70
     1
  0
DIMSTYLE
105
27
330
A
100
AcDbSymbolTableRecord
100
AcDbDimStyleTableRecord
  2
ISO-25
 70
     0
  3

  4

  5

  6

  7

 40
1.0
 41
2.5
 42
0.625
 43
3.75
 44
1.25
 45
0.0
 46
0.0
 47
0.0
 48
0.0
140
2.5
141
2.5
142
0.0
143
0.03937007874016
144
1.0
145
0.0
146
1.0
147
0.625
 71
     0
 72
     0
 73
     0
 74
     0
 75
     0
 76
     0
 77
     1
 78
     8
170
     0
171
     3
172
     1
173
     0
174
     0
175
     0
176
     0
177
     0
178
     0
270
     2
271
     2
272
     2
273
     2
274
     3
340
11
275
     0
280
     0
281
     0
282
     0
283
     0
284
     8
285
     0
286
     0
287
     3
288
     0
  0
ENDTAB
  0
TABLE
  2
BLOCK_RECORD
  5
1
330
0
100
AcDbSymbolTable
 70
     1
  0
BLOCK_RECORD
  5
1F
330
1
100
AcDbSymbolTableRecord
100
AcDbBlockTableRecord
  2
*MODEL_SPACE
  0
BLOCK_RECORD
  5
1B
330
1
100
AcDbSymbolTableRecord
100
AcDbBlockTableRecord
  2
*PAPER_SPACE
  0
ENDTAB
  0
ENDSEC
  0
SECTION
  2
BLOCKS
  0
BLOCK
  5
20
330
1F
100
AcDbEntity
  8
0
100
AcDbBlockBegin
  2
*MODEL_SPACE
 70
     0
 10
0.0
 20
0.0
 30
0.0
  3
*MODEL_SPACE
  1

  0
ENDBLK
  5
21
330
1F
100
AcDbEntity
  8
0
100
AcDbBlockEnd
  0
BLOCK
  5
1C
330
1B
100
AcDbEntity
 67
     1
  8
0
100
AcDbBlockBegin
  2
*PAPER_SPACE
  1

  0
ENDBLK
  5
1D
330
1B
100
AcDbEntity
 67
     1
  8
0
100
AcDbBlockEnd
  0
ENDSEC
  0
SECTION
  2
ENTITIES
  0
LINE
  5
100
100
AcDbEntity
  8
Tracing
 62
7
100
AcDbLine
 10
0.152005
 20
38.153202
 30
0.0
 11
-37.697187
 21
-0.456015
 31
0.0
  0
LINE
  5
101
100
AcDbEntity
  8
Tracing
 62
7
100
AcDbLine
 10
-37.697187
 20
-0.456015
 30
0.0
 11
-19.968008
 21
-18.085037
 31
0.0
  0
LINE
  5
102
100
AcDbEntity
  8
Tracing
 62
7
100
AcDbLine
 10
-19.968008
 20
-18.085037
 30
0.0
 11
-16.974457
 21
-16.668679
 31
0.0
  0
LINE
  5
103
100
AcDbEntity
  8
Tracing
 62
7
100
AcDbLine
 10
-16.974457
 20
-16.668679
 30
0.0
 11
-32.124856
 21
-1.621971
 31
0.0
  0
LINE
  5
104
100
AcDbEntity
  8
Tracing
 62
7
100
AcDbLine
 10
-32.124856
 20
-1.621971
 30
0.0
 11
-0.152005
 21
28.424894
 31
0.0
  0
LINE
  5
105
100
AcDbEntity
  8
Tracing
 62
7
100
AcDbLine
 10
-0.152005
 20
28.424894
 30
0.0
 11
21.306754
 21
8.829350
 31
0.0
  0
LINE
  5
106
100
AcDbEntity
  8
Tracing
 62
7
100
AcDbLine
 10
21.306754
 20
8.829350
 30
0.0
 11
24.417390
 21
12.823783
 31
0.0
  0
LINE
  5
107
100
AcDbEntity
  8
Tracing
 62
7
100
AcDbLine
 10
24.417390
 20
12.823783
 30
0.0
 11
0.152005
 21
38.153202
 31
0.0
  0
LINE
  5
108
100
AcDbEntity
  8
Tracing
 62
7
100
AcDbLine
 10
-13.234423
 20
-24.827766
 30
0.0
 11
0.000000
 21
-38.153202
 31
0.0
  0
LINE
  5
109
100
AcDbEntity
  8
Tracing
 62
7
100
AcDbLine
 10
0.000000
 20
-38.153202
 30
0.0
 11
37.697187
 21
-0.608020
 31
0.0
  0
LINE
  5
10a
100
AcDbEntity
  8
Tracing
 62
7
100
AcDbLine
 10
37.697187
 20
-0.608020
 30
0.0
 11
30.606577
 21
6.684679
 31
0.0
  0
LINE
  5
10b
100
AcDbEntity
  8
Tracing
 62
7
100
AcDbLine
 10
30.606577
 20
6.684679
 30
0.0
 11
27.714951
 21
3.038328
 31
0.0
  0
LINE
  5
10c
100
AcDbEntity
  8
Tracing
 62
7
100
AcDbLine
 10
27.714951
 20
3.038328
 30
0.0
 11
32.377019
 21
-1.672051
 31
0.0
  0
LINE
  5
10d
100
AcDbEntity
  8
Tracing
 62
7
100
AcDbLine
 10
32.377019
 20
-1.672051
 30
0.0
 11
0.000000
 21
-33.745063
 31
0.0
  0
LINE
  5
10e
100
AcDbEntity
  8
Tracing
 62
7
100
AcDbLine
 10
0.000000
 20
-33.745063
 30
0.0
 11
-10.370225
 21
-23.363013
 31
0.0
  0
LINE
  5
10f
100
AcDbEntity
  8
Tracing
 62
7
100
AcDbLine
 10
-10.370225
 20
-23.363013
 30
0.0
 11
-13.234423
 21
-24.827766
 31
0.0
  0
SPLINE
  5
110
100
AcDbEntity
  8
Tracing
 62
7
100
AcDbSpline
 70
8
 71
3
 72
8
 73
4
 74
0
 40
0
 40
0
 40
0
 40
0
 40
1
 40
1
 40
1
 40
1
 10
0.912029
 20
23.104729
 30
0.0
 10
0.354587
 20
23.909949
 30
0.0
 10
-0.549983
 20
23.890458
 30
0.0
 10
-1.064034
 20
23.104729
 30
0.0
  0
LINE
  5
111
100
AcDbEntity
  8
Tracing
 62
7
100
AcDbLine
 10
-1.064034
 20
23.104729
 30
0.0
 11
-19.912627
 21
-10.032314
 31
0.0
  0
SPLINE
  5
112
100
AcDbEntity
  8
Tracing
 62
7
100
AcDbSpline
 70
8
 71
3
 72
8
 73
4
 74
0
 40
0
 40
0
 40
0
 40
0
 40
1
 40
1
 40
1
 40
1
 10
-19.912627
 20
-10.032314
 30
0.0
 10
-20.523902
 20
-10.940423
 30
0.0
 10
-20.183632
 20
-12.166326
 30
0.0
 10
-19.152603
 20
-12.160383
 30
0.0
  0
LINE
  5
113
100
AcDbEntity
  8
Tracing
 62
7
100
AcDbLine
 10
-19.152603
 20
-12.160383
 30
0.0
 11
-5.493652
 21
-12.008378
 31
0.0
  0
LINE
  5
114
100
AcDbEntity
  8
Tracing
 62
7
100
AcDbLine
 10
-5.493652
 20
-12.008378
 30
0.0
 11
-1.295529
 21
-9.728307
 31
0.0
  0
LINE
  5
115
100
AcDbEntity
  8
Tracing
 62
7
100
AcDbLine
 10
-1.295529
 20
-9.728307
 30
0.0
 11
-16.416517
 21
-9.728307
 31
0.0
  0
LINE
  5
116
100
AcDbEntity
  8
Tracing
 62
7
100
AcDbLine
 10
-16.416517
 20
-9.728307
 30
0.0
 11
0.152005
 21
19.304610
 31
0.0
  0
LINE
  5
117
100
AcDbEntity
  8
Tracing
 62
7
100
AcDbLine
 10
0.152005
 20
19.304610
 30
0.0
 11
16.952218
 21
-9.569207
 31
0.0
  0
LINE
  5
118
100
AcDbEntity
  8
Tracing
 62
7
100
AcDbLine
 10
16.952218
 20
-9.569207
 30
0.0
 11
12.616397
 21
-9.576291
 31
0.0
  0
LINE
  5
119
100
AcDbEntity
  8
Tracing
 62
7
100
AcDbLine
 10
12.616397
 20
-9.576291
 30
0.0
 11
8.418274
 21
-12.160371
 31
0.0
  0
LINE
  5
11a
100
AcDbEntity
  8
Tracing
 62
7
100
AcDbLine
 10
8.418274
 20
-12.160371
 30
0.0
 11
19.456613
 21
-12.160371
 31
0.0
  0
SPLINE
  5
11b
100
AcDbEntity
  8
Tracing
 62
7
100
AcDbSpline
 70
8
 71
3
 72
8
 73
4
 74
0
 40
0
 40
0
 40
0
 40
0
 40
1
 40
1
 40
1
 40
1
 10
19.456613
 20
-12.160371
 30
0.0
 10
20.456992
 20
-12.208583
 30
0.0
 10
21.001466
 20
-11.451672
 30
0.0
 10
20.520646
 20
-10.488318
 30
0.0
  0
LINE
  5
11c
100
AcDbEntity
  8
Tracing
 62
7
100
AcDbLine
 10
20.520646
 20
-10.488318
 30
0.0
 11
0.912029
 21
23.104729
 31
0.0
  0
SPLINE
  5
11d
100
AcDbEntity
  8
Tracing
 62
7
100
AcDbSpline
 70
8
 71
3
 72
8
 73
4
 74
0
 40
0
 40
0
 40
0
 40
0
 40
1
 40
1
 40
1
 40
1
 10
11.248354
 20
-3.648115
 30
0.0
 10
-25.133345
 20
-27.525068
 30
0.0
 10
-34.359037
 20
-23.346808
 30
0.0
 10
-27.816876
 20
-13.072412
 30
0.0
  0
LINE
  5
11e
100
AcDbEntity
  8
Tracing
 62
7
100
AcDbLine
 10
-27.816876
 20
-13.072412
 30
0.0
 11
-30.805941
 21
-9.914695
 31
0.0
  0
SPLINE
  5
11f
100
AcDbEntity
  8
Tracing
 62
7
100
AcDbSpline
 70
8
 71
3
 72
8
 73
4
 74
0
 40
0
 40
0
 40
0
 40
0
 40
1
 40
1
 40
1
 40
1
 10
-30.805941
 20
-9.914695
 30
0.0
 10
-37.962451
 20
-19.444329
 30
0.0
 10
-38.569051
 20
-42.781784
 30
0.0
 10
13.376421
 20
-7.296229
 30
0.0
  0
LINE
  5
120
100
AcDbEntity
  8
Tracing
 62
7
100
AcDbLine
 10
13.376421
 20
-7.296229
 30
0.0
 11
11.248354
 21
-3.648115
 31
0.0
  0
SPLINE
  5
121
100
AcDbEntity
  8
Tracing
 62
7
100
AcDbSpline
 70
8
 71
3
 72
8
 73
4
 74
0
 40
0
 40
0
 40
0
 40
0
 40
1
 40
1
 40
1
 40
1
 10
-23.442951
 20
-7.506070
 30
0.0
 10
-20.882719
 20
-4.570109
 30
0.0
 10
-18.848756
 20
-2.537401
 30
0.0
 10
-15.586299
 20
0.646072
 30
0.0
  0
LINE
  5
122
100
AcDbEntity
  8
Tracing
 62
7
100
AcDbLine
 10
-15.586299
 20
0.646072
 30
0.0
 11
-10.061271
 21
9.891641
 31
0.0
  0
SPLINE
  5
123
100
AcDbEntity
  8
Tracing
 62
7
100
AcDbSpline
 70
8
 71
3
 72
8
 73
4
 74
0
 40
0
 40
0
 40
0
 40
0
 40
1
 40
1
 40
1
 40
1
 10
-10.061271
 20
9.891641
 30
0.0
 10
-16.990323
 20
4.258211
 30
0.0
 10
-22.355444
 20
-0.957459
 30
0.0
 10
-25.989969
 20
-4.889858
 30
0.0
  0
LINE
  5
124
100
AcDbEntity
  8
Tracing
 62
7
100
AcDbLine
 10
-25.989969
 20
-4.889858
 30
0.0
 11
-23.442951
 21
-7.506070
 31
0.0
  0
LINE
  5
125
100
AcDbEntity
  8
Tracing
 62
7
100
AcDbLine
 10
16.264512
 20
0.304010
 30
0.0
 11
18.443094
 21
-3.343645
 31
0.0
  0
SPLINE
  5
126
100
AcDbEntity
  8
Tracing
 62
7
100
AcDbSpline
 70
8
 71
3
 72
8
 73
4
 74
0
 40
0
 40
0
 40
0
 40
0
 40
1
 40
1
 40
1
 40
1
 10
18.443094
 20
-3.343645
 30
0.0
 10
48.443823
 20
25.713780
 30
0.0
 10
24.931938
 20
25.785400
 30
0.0
 10
16.518238
 20
23.256965
 30
0.0
  0
LINE
  5
127
100
AcDbEntity
  8
Tracing
 62
7
100
AcDbLine
 10
16.518238
 20
23.256965
 30
0.0
 11
19.051344
 21
20.470131
 31
0.0
  0
SPLINE
  5
128
100
AcDbEntity
  8
Tracing
 62
7
100
AcDbSpline
 70
8
 71
3
 72
8
 73
4
 74
0
 40
0
 40
0
 40
0
 40
0
 40
1
 40
1
 40
1
 40
1
 10
19.051344
 20
20.470131
 30
0.0
 10
30.000962
 20
23.180889
 30
0.0
 10
35.173714
 20
18.185816
 30
0.0
 10
16.264512
 20
0.304010
 30
0.0
  0
LINE
  5
129
100
AcDbEntity
  8
Tracing
 62
7
100
AcDbLine
 10
16.264512
 20
0.304010
 30
0.0
 11
16.264512
 21
0.304010
 31
0.0
  0
LINE
  5
12a
100
AcDbEntity
  8
Tracing
 62
7
100
AcDbLine
 10
0.207949
 20
16.343926
 30
0.0
 11
1.679967
 21
13.414626
 31
0.0
  0
SPLINE
  5
12b
100
AcDbEntity
  8
Tracing
 62
7
100
AcDbSpline
 70
8
 71
3
 72
8
 73
4
 74
0
 40
0
 40
0
 40
0
 40
0
 40
1
 40
1
 40
1
 40
1
 10
1.679967
 20
13.414626
 30
0.0
 10
-0.301818
 20
12.306774
 30
0.0
 10
-1.693452
 20
10.999552
 30
0.0
 10
-3.878099
 20
9.520724
 30
0.0
  0
LINE
  5
12c
100
AcDbEntity
  8
Tracing
 62
7
100
AcDbLine
 10
-3.878099
 20
9.520724
 30
0.0
 11
-0.468979
 21
15.910289
 31
0.0
  0
SPLINE
  5
12d
100
AcDbEntity
  8
Tracing
 62
7
100
AcDbSpline
 70
8
 71
3
 72
8
 73
4
 74
0
 40
0
 40
0
 40
0
 40
0
 40
1
 40
1
 40
1
 40
1
 10
-0.468979
 20
15.910289
 30
0.0
 10
-0.033404
 20
16.214299
 30
0.0
 10
-0.295792
 20
16.039917
 30
0.0
 10
0.207949
 20
16.343926
 30
0.0
  0
LINE
  5
12e
100
AcDbEntity
  8
Tracing
 62
7
100
AcDbLine
 10
0.207949
 20
16.343926
 30
0.0
 11
0.207949
 21
16.343926
 31
0.0
  0
LINE
  5
12f
100
AcDbEntity
  8
Tracing
 62
7
100
AcDbLine
 10
4.809217
 20
18.936222
 30
0.0
 11
6.733073
 21
16.006922
 31
0.0
  0
SPLINE
  5
130
100
AcDbEntity
  8
Tracing
 62
7
100
AcDbSpline
 70
8
 71
3
 72
8
 73
4
 74
0
 40
0
 40
0
 40
0
 40
0
 40
1
 40
1
 40
1
 40
1
 10
6.733073
 20
16.006922
 30
0.0
 10
7.663476
 20
16.641310
 30
0.0
 10
8.480907
 20
16.992586
 30
0.0
 10
9.606401
 20
17.444633
 30
0.0
  0
LINE
  5
131
100
AcDbEntity
  8
Tracing
 62
7
100
AcDbLine
 10
9.606401
 20
17.444633
 30
0.0
 11
6.910386
 21
19.884983
 31
0.0
  0
SPLINE
  5
132
100
AcDbEntity
  8
Tracing
 62
7
100
AcDbSpline
 70
8
 71
3
 72
8
 73
4
 74
0
 40
0
 40
0
 40
0
 40
0
 40
1
 40
1
 40
1
 40
1
 10
6.910386
 20
19.884983
 30
0.0
 10
6.171152
 20
19.709646
 30
0.0
 10
5.466913
 20
19.402860
 30
0.0
 10
4.809217
 20
18.936222
 30
0.0
  0
LINE
  5
133
100
AcDbEntity
  8
Tracing
 62
7
100
AcDbLine
 10
4.809217
 20
18.936222
 30
0.0
 11
4.809217
 21
18.936222
 31
0.0
  0
LINE
  5
134
100
AcDbEntity
  8
Export
 62
7
100
AcDbLine
 10
0.152005
 20
38.153202
 30
0.0
 11
-37.697187
 21
-0.456015
 31
0.0
  0
LINE
  5
135
100
AcDbEntity
  8
Export
 62
7
100
AcDbLine
 10
-37.697187
 20
-0.456015
 30
0.0
 11
-19.968008
 21
-18.085037
 31
0.0
  0
LINE
  5
136
100
AcDbEntity
  8
Export
 62
7
100
AcDbLine
 10
-19.968008
 20
-18.085037
 30
0.0
 11
-16.974457
 21
-16.668679
 31
0.0
  0
LINE
  5
137
100
AcDbEntity
  8
Export
 62
7
100
AcDbLine
 10
-16.974457
 20
-16.668679
 30
0.0
 11
-32.124856
 21
-1.621971
 31
0.0
  0
LINE
  5
138
100
AcDbEntity
  8
Export
 62
7
100
AcDbLine
 10
-32.124856
 20
-1.621971
 30
0.0
 11
-0.152005
 21
28.424894
 31
0.0
  0
LINE
  5
139
100
AcDbEntity
  8
Export
 62
7
100
AcDbLine
 10
-0.152005
 20
28.424894
 30
0.0
 11
21.306754
 21
8.829350
 31
0.0
  0
LINE
  5
13a
100
AcDbEntity
  8
Export
 62
7
100
AcDbLine
 10
21.306754
 20
8.829350
 30
0.0
 11
24.417390
 21
12.823783
 31
0.0
  0
LINE
  5
13b
100
AcDbEntity
  8
Export
 62
7
100
AcDbLine
 10
24.417390
 20
12.823783
 30
0.0
 11
0.152005
 21
38.153202
 31
0.0
  0
LINE
  5
13c
100
AcDbEntity
  8
Export
 62
7
100
AcDbLine
 10
-13.234423
 20
-24.827766
 30
0.0
 11
0.000000
 21
-38.153202
 31
0.0
  0
LINE
  5
13d
100
AcDbEntity
  8
Export
 62
7
100
AcDbLine
 10
0.000000
 20
-38.153202
 30
0.0
 11
37.697187
 21
-0.608020
 31
0.0
  0
LINE
  5
13e
100
AcDbEntity
  8
Export
 62
7
100
AcDbLine
 10
37.697187
 20
-0.608020
 30
0.0
 11
30.606577
 21
6.684679
 31
0.0
  0
LINE
  5
13f
100
AcDbEntity
  8
Export
 62
7
100
AcDbLine
 10
30.606577
 20
6.684679
 30
0.0
 11
27.714951
 21
3.038328
 31
0.0
  0
LINE
  5
140
100
AcDbEntity
  8
Export
 62
7
100
AcDbLine
 10
27.714951
 20
3.038328
 30
0.0
 11
32.377019
 21
-1.672051
 31
0.0
  0
LINE
  5
141
100
AcDbEntity
  8
Export
 62
7
100
AcDbLine
 10
32.377019
 20
-1.672051
 30
0.0
 11
0.000000
 21
-33.745063
 31
0.0
  0
LINE
  5
142
100
AcDbEntity
  8
Export
 62
7
100
AcDbLine
 10
0.000000
 20
-33.745063
 30
0.0
 11
-10.370225
 21
-23.363013
 31
0.0
  0
LINE
  5
143
100
AcDbEntity
  8
Export
 62
7
100
AcDbLine
 10
-10.370225
 20
-23.363013
 30
0.0
 11
-13.234423
 21
-24.827766
 31
0.0
  0
LINE
  5
144
100
AcDbEntity
  8
Export
 62
7
100
AcDbLine
 10
0.912029
 20
23.104729
 30
0.0
 11
0.688157
 21
23.368142
 31
0.0
  0
LINE
  5
145
100
AcDbEntity
  8
Export
 62
7
100
AcDbLine
 10
0.688157
 20
23.368142
 30
0.0
 11
0.440387
 21
23.554924
 31
0.0
  0
LINE
  5
146
100
AcDbEntity
  8
Export
 62
7
100
AcDbLine
 10
0.440387
 20
23.554924
 30
0.0
 11
0.177361
 21
23.665760
 31
0.0
  0
LINE
  5
147
100
AcDbEntity
  8
Export
 62
7
100
AcDbLine
 10
0.177361
 20
23.665760
 30
0.0
 11
-0.092274
 21
23.701335
 31
0.0
  0
LINE
  5
148
100
AcDbEntity
  8
Export
 62
7
100
AcDbLine
 10
-0.092274
 20
23.701335
 30
0.0
 11
-0.359876
 21
23.662334
 31
0.0
  0
LINE
  5
149
100
AcDbEntity
  8
Export
 62
7
100
AcDbLine
 10
-0.359876
 20
23.662334
 30
0.0
 11
-0.616799
 21
23.549443
 31
0.0
  0
LINE
  5
14a
100
AcDbEntity
  8
Export
 62
7
100
AcDbLine
 10
-0.616799
 20
23.549443
 30
0.0
 11
-0.854400
 21
23.363346
 31
0.0
  0
LINE
  5
14b
100
AcDbEntity
  8
Export
 62
7
100
AcDbLine
 10
-0.854400
 20
23.363346
 30
0.0
 11
-1.064034
 21
23.104729
 31
0.0
  0
LINE
  5
14c
100
AcDbEntity
  8
Export
 62
7
100
AcDbLine
 10
-1.064034
 20
23.104729
 30
0.0
 11
-19.912627
 21
-10.032314
 31
0.0
  0
LINE
  5
14d
100
AcDbEntity
  8
Export
 62
7
100
AcDbLine
 10
-19.912627
 20
-10.032314
 30
0.0
 11
-20.097761
 21
-10.384725
 31
0.0
  0
LINE
  5
14e
100
AcDbEntity
  8
Export
 62
7
100
AcDbLine
 10
-20.097761
 20
-10.384725
 30
0.0
 11
-20.196744
 21
-10.748769
 31
0.0
  0
LINE
  5
14f
100
AcDbEntity
  8
Export
 62
7
100
AcDbLine
 10
-20.196744
 20
-10.748769
 30
0.0
 11
-20.212631
 21
-11.106287
 31
0.0
  0
LINE
  5
150
100
AcDbEntity
  8
Export
 62
7
100
AcDbLine
 10
-20.212631
 20
-11.106287
 30
0.0
 11
-20.148479
 21
-11.439118
 31
0.0
  0
LINE
  5
151
100
AcDbEntity
  8
Export
 62
7
100
AcDbLine
 10
-20.148479
 20
-11.439118
 30
0.0
 11
-20.007344
 21
-11.729103
 31
0.0
  0
LINE
  5
152
100
AcDbEntity
  8
Export
 62
7
100
AcDbLine
 10
-20.007344
 20
-11.729103
 30
0.0
 11
-19.792283
 21
-11.958082
 31
0.0
  0
LINE
  5
153
100
AcDbEntity
  8
Export
 62
7
100
AcDbLine
 10
-19.792283
 20
-11.958082
 30
0.0
 11
-19.506350
 21
-12.107895
 31
0.0
  0
LINE
  5
154
100
AcDbEntity
  8
Export
 62
7
100
AcDbLine
 10
-19.506350
 20
-12.107895
 30
0.0
 11
-19.152603
 21
-12.160383
 31
0.0
  0
LINE
  5
155
100
AcDbEntity
  8
Export
 62
7
100
AcDbLine
 10
-19.152603
 20
-12.160383
 30
0.0
 11
-5.493652
 21
-12.008378
 31
0.0
  0
LINE
  5
156
100
AcDbEntity
  8
Export
 62
7
100
AcDbLine
 10
-5.493652
 20
-12.008378
 30
0.0
 11
-1.295529
 21
-9.728307
 31
0.0
  0
LINE
  5
157
100
AcDbEntity
  8
Export
 62
7
100
AcDbLine
 10
-1.295529
 20
-9.728307
 30
0.0
 11
-16.416517
 21
-9.728307
 31
0.0
  0
LINE
  5
158
100
AcDbEntity
  8
Export
 62
7
100
AcDbLine
 10
-16.416517
 20
-9.728307
 30
0.0
 11
0.152005
 21
19.304610
 31
0.0
  0
LINE
  5
159
100
AcDbEntity
  8
Export
 62
7
100
AcDbLine
 10
0.152005
 20
19.304610
 30
0.0
 11
16.952218
 21
-9.569207
 31
0.0
  0
LINE
  5
15a
100
AcDbEntity
  8
Export
 62
7
100
AcDbLine
 10
16.952218
 20
-9.569207
 30
0.0
 11
12.616397
 21
-9.576291
 31
0.0
  0
LINE
  5
15b
100
AcDbEntity
  8
Export
 62
7
100
AcDbLine
 10
12.616397
 20
-9.576291
 30
0.0
 11
8.418274
 21
-12.160371
 31
0.0
  0
LINE
  5
15c
100
AcDbEntity
  8
Export
 62
7
100
AcDbLine
 10
8.418274
 20
-12.160371
 30
0.0
 11
19.456613
 21
-12.160371
 31
0.0
  0
LINE
  5
15d
100
AcDbEntity
  8
Export
 62
7
100
AcDbLine
 10
19.456613
 20
-12.160371
 30
0.0
 11
19.809272
 21
-12.141880
 31
0.0
  0
LINE
  5
15e
100
AcDbEntity
  8
Export
 62
7
100
AcDbLine
 10
19.809272
 20
-12.141880
 30
0.0
 11
20.112518
 21
-12.054924
 31
0.0
  0
LINE
  5
15f
100
AcDbEntity
  8
Export
 62
7
100
AcDbLine
 10
20.112518
 20
-12.054924
 30
0.0
 11
20.359678
 21
-11.906519
 31
0.0
  0
LINE
  5
160
100
AcDbEntity
  8
Export
 62
7
100
AcDbLine
 10
20.359678
 20
-11.906519
 30
0.0
 11
20.544079
 21
-11.703682
 31
0.0
  0
LINE
  5
161
100
AcDbEntity
  8
Export
 62
7
100
AcDbLine
 10
20.544079
 20
-11.703682
 30
0.0
 11
20.659049
 21
-11.453427
 31
0.0
  0
LINE
  5
162
100
AcDbEntity
  8
Export
 62
7
100
AcDbLine
 10
20.659049
 20
-11.453427
 30
0.0
 11
20.697915
 21
-11.162771
 31
0.0
  0
LINE
  5
163
100
AcDbEntity
  8
Export
 62
7
100
AcDbLine
 10
20.697915
 20
-11.162771
 30
0.0
 11
20.654005
 21
-10.838729
 31
0.0
  0
LINE
  5
164
100
AcDbEntity
  8
Export
 62
7
100
AcDbLine
 10
20.654005
 20
-10.838729
 30
0.0
 11
20.520646
 21
-10.488318
 31
0.0
  0
LINE
  5
165
100
AcDbEntity
  8
Export
 62
7
100
AcDbLine
 10
20.520646
 20
-10.488318
 30
0.0
 11
0.912029
 21
23.104729
 31
0.0
  0
LINE
  5
166
100
AcDbEntity
  8
Export
 62
7
100
AcDbLine
 10
11.248354
 20
-3.648115
 30
0.0
 11
7.916781
 21
-5.805056
 31
0.0
  0
LINE
  5
167
100
AcDbEntity
  8
Export
 62
7
100
AcDbLine
 10
7.916781
 20
-5.805056
 30
0.0
 11
4.742240
 21
-7.801632
 31
0.0
  0
LINE
  5
168
100
AcDbEntity
  8
Export
 62
7
100
AcDbLine
 10
4.742240
 20
-7.801632
 30
0.0
 11
1.722645
 21
-9.641864
 31
0.0
  0
LINE
  5
169
100
AcDbEntity
  8
Export
 62
7
100
AcDbLine
 10
1.722645
 20
-9.641864
 30
0.0
 11
-1.144088
 21
-11.329773
 31
0.0
  0
LINE
  5
16a
100
AcDbEntity
  8
Export
 62
7
100
AcDbLine
 10
-1.144088
 20
-11.329773
 30
0.0
 11
-3.860044
 21
-12.869379
 31
0.0
  0
LINE
  5
16b
100
AcDbEntity
  8
Export
 62
7
100
AcDbLine
 10
-3.860044
 20
-12.869379
 30
0.0
 11
-6.427310
 21
-14.264702
 31
0.0
  0
LINE
  5
16c
100
AcDbEntity
  8
Export
 62
7
100
AcDbLine
 10
-6.427310
 20
-14.264702
 30
0.0
 11
-8.847970
 21
-15.519765
 31
0.0
  0
LINE
  5
16d
100
AcDbEntity
  8
Export
 62
7
100
AcDbLine
 10
-8.847970
 20
-15.519765
 30
0.0
 11
-11.124109
 21
-16.638588
 31
0.0
  0
LINE
  5
16e
100
AcDbEntity
  8
Export
 62
7
100
AcDbLine
 10
-11.124109
 20
-16.638588
 30
0.0
 11
-13.257813
 21
-17.625191
 31
0.0
  0
LINE
  5
16f
100
AcDbEntity
  8
Export
 62
7
100
AcDbLine
 10
-13.257813
 20
-17.625191
 30
0.0
 11
-15.251166
 21
-18.483596
 31
0.0
  0
LINE
  5
170
100
AcDbEntity
  8
Export
 62
7
100
AcDbLine
 10
-15.251166
 20
-18.483596
 30
0.0
 11
-17.106255
 21
-19.217822
 31
0.0
  0
LINE
  5
171
100
AcDbEntity
  8
Export
 62
7
100
AcDbLine
 10
-17.106255
 20
-19.217822
 30
0.0
 11
-18.825164
 21
-19.831892
 31
0.0
  0
LINE
  5
172
100
AcDbEntity
  8
Export
 62
7
100
AcDbLine
 10
-18.825164
 20
-19.831892
 30
0.0
 11
-20.409979
 21
-20.329826
 31
0.0
  0
LINE
  5
173
100
AcDbEntity
  8
Export
 62
7
100
AcDbLine
 10
-20.409979
 20
-20.329826
 30
0.0
 11
-21.862784
 21
-20.715645
 31
0.0
  0
LINE
  5
174
100
AcDbEntity
  8
Export
 62
7
100
AcDbLine
 10
-21.862784
 20
-20.715645
 30
0.0
 11
-23.185666
 21
-20.993369
 31
0.0
  0
LINE
  5
175
100
AcDbEntity
  8
Export
 62
7
100
AcDbLine
 10
-23.185666
 20
-20.993369
 30
0.0
 11
-24.380709
 21
-21.167019
 31
0.0
  0
LINE
  5
176
100
AcDbEntity
  8
Export
 62
7
100
AcDbLine
 10
-24.380709
 20
-21.167019
 30
0.0
 11
-25.449998
 21
-21.240617
 31
0.0
  0
LINE
  5
177
100
AcDbEntity
  8
Export
 62
7
100
AcDbLine
 10
-25.449998
 20
-21.240617
 30
0.0
 11
-26.395619
 21
-21.218183
 31
0.0
  0
LINE
  5
178
100
AcDbEntity
  8
Export
 62
7
100
AcDbLine
 10
-26.395619
 20
-21.218183
 30
0.0
 11
-27.219657
 21
-21.103738
 31
0.0
  0
LINE
  5
179
100
AcDbEntity
  8
Export
 62
7
100
AcDbLine
 10
-27.219657
 20
-21.103738
 30
0.0
 11
-27.924197
 21
-20.901302
 31
0.0
  0
LINE
  5
17a
100
AcDbEntity
  8
Export
 62
7
100
AcDbLine
 10
-27.924197
 20
-20.901302
 30
0.0
 11
-28.511325
 21
-20.614897
 31
0.0
  0
LINE
  5
17b
100
AcDbEntity
  8
Export
 62
7
100
AcDbLine
 10
-28.511325
 20
-20.614897
 30
0.0
 11
-28.983125
 21
-20.248543
 31
0.0
  0
LINE
  5
17c
100
AcDbEntity
  8
Export
 62
7
100
AcDbLine
 10
-28.983125
 20
-20.248543
 30
0.0
 11
-29.341683
 21
-19.806262
 31
0.0
  0
LINE
  5
17d
100
AcDbEntity
  8
Export
 62
7
100
AcDbLine
 10
-29.341683
 20
-19.806262
 30
0.0
 11
-29.589084
 21
-19.292073
 31
0.0
  0
LINE
  5
17e
100
AcDbEntity
  8
Export
 62
7
100
AcDbLine
 10
-29.589084
 20
-19.292073
 30
0.0
 11
-29.727414
 21
-18.709998
 31
0.0
  0
LINE
  5
17f
100
AcDbEntity
  8
Export
 62
7
100
AcDbLine
 10
-29.727414
 20
-18.709998
 30
0.0
 11
-29.758758
 21
-18.064058
 31
0.0
  0
LINE
  5
180
100
AcDbEntity
  8
Export
 62
7
100
AcDbLine
 10
-29.758758
 20
-18.064058
 30
0.0
 11
-29.685200
 21
-17.358274
 31
0.0
  0
LINE
  5
181
100
AcDbEntity
  8
Export
 62
7
100
AcDbLine
 10
-29.685200
 20
-17.358274
 30
0.0
 11
-29.508826
 21
-16.596665
 31
0.0
  0
LINE
  5
182
100
AcDbEntity
  8
Export
 62
7
100
AcDbLine
 10
-29.508826
 20
-16.596665
 30
0.0
 11
-29.231721
 21
-15.783254
 31
0.0
  0
LINE
  5
183
100
AcDbEntity
  8
Export
 62
7
100
AcDbLine
 10
-29.231721
 20
-15.783254
 30
0.0
 11
-28.855971
 21
-14.922061
 31
0.0
  0
LINE
  5
184
100
AcDbEntity
  8
Export
 62
7
100
AcDbLine
 10
-28.855971
 20
-14.922061
 30
0.0
 11
-28.383661
 21
-14.017107
 31
0.0
  0
LINE
  5
185
100
AcDbEntity
  8
Export
 62
7
100
AcDbLine
 10
-28.383661
 20
-14.017107
 30
0.0
 11
-27.816876
 21
-13.072412
 31
0.0
  0
LINE
  5
186
100
AcDbEntity
  8
Export
 62
7
100
AcDbLine
 10
-27.816876
 20
-13.072412
 30
0.0
 11
-30.805941
 21
-9.914695
 31
0.0
  0
LINE
  5
187
100
AcDbEntity
  8
Export
 62
7
100
AcDbLine
 10
-30.805941
 20
-9.914695
 30
0.0
 11
-31.456271
 21
-10.846335
 31
0.0
  0
LINE
  5
188
100
AcDbEntity
  8
Export
 62
7
100
AcDbLine
 10
-31.456271
 20
-10.846335
 30
0.0
 11
-32.059799
 21
-11.845580
 31
0.0
  0
LINE
  5
189
100
AcDbEntity
  8
Export
 62
7
100
AcDbLine
 10
-32.059799
 20
-11.845580
 30
0.0
 11
-32.608102
 21
-12.899132
 31
0.0
  0
LINE
  5
18a
100
AcDbEntity
  8
Export
 62
7
100
AcDbLine
 10
-32.608102
 20
-12.899132
 30
0.0
 11
-33.092757
 21
-13.993693
 31
0.0
  0
LINE
  5
18b
100
AcDbEntity
  8
Export
 62
7
100
AcDbLine
 10
-33.092757
 20
-13.993693
 30
0.0
 11
-33.505341
 21
-15.115962
 31
0.0
  0
LINE
  5
18c
100
AcDbEntity
  8
Export
 62
7
100
AcDbLine
 10
-33.505341
 20
-15.115962
 30
0.0
 11
-33.837430
 21
-16.252640
 31
0.0
  0
LINE
  5
18d
100
AcDbEntity
  8
Export
 62
7
100
AcDbLine
 10
-33.837430
 20
-16.252640
 30
0.0
 11
-34.080601
 21
-17.390430
 31
0.0
  0
LINE
  5
18e
100
AcDbEntity
  8
Export
 62
7
100
AcDbLine
 10
-34.080601
 20
-17.390430
 30
0.0
 11
-34.226431
 21
-18.516031
 31
0.0
  0
LINE
  5
18f
100
AcDbEntity
  8
Export
 62
7
100
AcDbLine
 10
-34.226431
 20
-18.516031
 30
0.0
 11
-34.266497
 21
-19.616144
 31
0.0
  0
LINE
  5
190
100
AcDbEntity
  8
Export
 62
7
100
AcDbLine
 10
-34.266497
 20
-19.616144
 30
0.0
 11
-34.192375
 21
-20.677470
 31
0.0
  0
LINE
  5
191
100
AcDbEntity
  8
Export
 62
7
100
AcDbLine
 10
-34.192375
 20
-20.677470
 30
0.0
 11
-33.995643
 21
-21.686711
 31
0.0
  0
LINE
  5
192
100
AcDbEntity
  8
Export
 62
7
100
AcDbLine
 10
-33.995643
 20
-21.686711
 30
0.0
 11
-33.667876
 21
-22.630567
 31
0.0
  0
LINE
  5
193
100
AcDbEntity
  8
Export
 62
7
100
AcDbLine
 10
-33.667876
 20
-22.630567
 30
0.0
 11
-33.200652
 21
-23.495738
 31
0.0
  0
LINE
  5
194
100
AcDbEntity
  8
Export
 62
7
100
AcDbLine
 10
-33.200652
 20
-23.495738
 30
0.0
 11
-32.912111
 21
-23.894662
 31
0.0
  0
LINE
  5
195
100
AcDbEntity
  8
Export
 62
7
100
AcDbLine
 10
-32.912111
 20
-23.894662
 30
0.0
 11
-32.585547
 21
-24.268927
 31
0.0
  0
LINE
  5
196
100
AcDbEntity
  8
Export
 62
7
100
AcDbLine
 10
-32.585547
 20
-24.268927
 30
0.0
 11
-32.219907
 21
-24.616872
 31
0.0
  0
LINE
  5
197
100
AcDbEntity
  8
Export
 62
7
100
AcDbLine
 10
-32.219907
 20
-24.616872
 30
0.0
 11
-31.814139
 21
-24.936833
 31
0.0
  0
LINE
  5
198
100
AcDbEntity
  8
Export
 62
7
100
AcDbLine
 10
-31.814139
 20
-24.936833
 30
0.0
 11
-31.367188
 21
-25.227150
 31
0.0
  0
LINE
  5
199
100
AcDbEntity
  8
Export
 62
7
100
AcDbLine
 10
-31.367188
 20
-25.227150
 30
0.0
 11
-30.878003
 21
-25.486158
 31
0.0
  0
LINE
  5
19a
100
AcDbEntity
  8
Export
 62
7
100
AcDbLine
 10
-30.878003
 20
-25.486158
 30
0.0
 11
-30.345530
 21
-25.712197
 31
0.0
  0
LINE
  5
19b
100
AcDbEntity
  8
Export
 62
7
100
AcDbLine
 10
-30.345530
 20
-25.712197
 30
0.0
 11
-29.768717
 21
-25.903603
 31
0.0
  0
LINE
  5
19c
100
AcDbEntity
  8
Export
 62
7
100
AcDbLine
 10
-29.768717
 20
-25.903603
 30
0.0
 11
-29.146510
 21
-26.058714
 31
0.0
  0
LINE
  5
19d
100
AcDbEntity
  8
Export
 62
7
100
AcDbLine
 10
-29.146510
 20
-26.058714
 30
0.0
 11
-28.477857
 21
-26.175868
 31
0.0
  0
LINE
  5
19e
100
AcDbEntity
  8
Export
 62
7
100
AcDbLine
 10
-28.477857
 20
-26.175868
 30
0.0
 11
-27.761705
 21
-26.253402
 31
0.0
  0
LINE
  5
19f
100
AcDbEntity
  8
Export
 62
7
100
AcDbLine
 10
-27.761705
 20
-26.253402
 30
0.0
 11
-26.997001
 21
-26.289654
 31
0.0
  0
LINE
  5
1a0
100
AcDbEntity
  8
Export
 62
7
100
AcDbLine
 10
-26.997001
 20
-26.289654
 30
0.0
 11
-26.182692
 21
-26.282962
 31
0.0
  0
LINE
  5
1a1
100
AcDbEntity
  8
Export
 62
7
100
AcDbLine
 10
-26.182692
 20
-26.282962
 30
0.0
 11
-25.317725
 21
-26.231663
 31
0.0
  0
LINE
  5
1a2
100
AcDbEntity
  8
Export
 62
7
100
AcDbLine
 10
-25.317725
 20
-26.231663
 30
0.0
 11
-23.431605
 21
-25.988595
 31
0.0
  0
LINE
  5
1a3
100
AcDbEntity
  8
Export
 62
7
100
AcDbLine
 10
-23.431605
 20
-25.988595
 30
0.0
 11
-21.330218
 21
-25.547150
 31
0.0
  0
LINE
  5
1a4
100
AcDbEntity
  8
Export
 62
7
100
AcDbLine
 10
-21.330218
 20
-25.547150
 30
0.0
 11
-19.005142
 21
-24.894031
 31
0.0
  0
LINE
  5
1a5
100
AcDbEntity
  8
Export
 62
7
100
AcDbLine
 10
-19.005142
 20
-24.894031
 30
0.0
 11
-16.447953
 21
-24.015938
 31
0.0
  0
LINE
  5
1a6
100
AcDbEntity
  8
Export
 62
7
100
AcDbLine
 10
-16.447953
 20
-24.015938
 30
0.0
 11
-13.650227
 21
-22.899571
 31
0.0
  0
LINE
  5
1a7
100
AcDbEntity
  8
Export
 62
7
100
AcDbLine
 10
-13.650227
 20
-22.899571
 30
0.0
 11
-10.603542
 21
-21.531632
 31
0.0
  0
LINE
  5
1a8
100
AcDbEntity
  8
Export
 62
7
100
AcDbLine
 10
-10.603542
 20
-21.531632
 30
0.0
 11
-7.299474
 21
-19.898822
 31
0.0
  0
LINE
  5
1a9
100
AcDbEntity
  8
Export
 62
7
100
AcDbLine
 10
-7.299474
 20
-19.898822
 30
0.0
 11
-3.729600
 21
-17.987841
 31
0.0
  0
LINE
  5
1aa
100
AcDbEntity
  8
Export
 62
7
100
AcDbLine
 10
-3.729600
 20
-17.987841
 30
0.0
 11
0.114503
 21
-15.785390
 31
0.0
  0
LINE
  5
1ab
100
AcDbEntity
  8
Export
 62
7
100
AcDbLine
 10
0.114503
 20
-15.785390
 30
0.0
 11
4.241259
 21
-13.278171
 31
0.0
  0
LINE
  5
1ac
100
AcDbEntity
  8
Export
 62
7
100
AcDbLine
 10
4.241259
 20
-13.278171
 30
0.0
 11
8.659090
 21
-10.452883
 31
0.0
  0
LINE
  5
1ad
100
AcDbEntity
  8
Export
 62
7
100
AcDbLine
 10
8.659090
 20
-10.452883
 30
0.0
 11
13.376421
 21
-7.296229
 31
0.0
  0
LINE
  5
1ae
100
AcDbEntity
  8
Export
 62
7
100
AcDbLine
 10
13.376421
 20
-7.296229
 30
0.0
 11
11.248354
 21
-3.648115
 31
0.0
  0
LINE
  5
1af
100
AcDbEntity
  8
Export
 62
7
100
AcDbLine
 10
-23.442951
 20
-7.506070
 30
0.0
 11
-21.594034
 21
-5.441365
 31
0.0
  0
LINE
  5
1b0
100
AcDbEntity
  8
Export
 62
7
100
AcDbLine
 10
-21.594034
 20
-5.441365
 30
0.0
 11
-19.777959
 21
-3.522816
 31
0.0
  0
LINE
  5
1b1
100
AcDbEntity
  8
Export
 62
7
100
AcDbLine
 10
-19.777959
 20
-3.522816
 30
0.0
 11
-17.830217
 21
-1.557858
 31
0.0
  0
LINE
  5
1b2
100
AcDbEntity
  8
Export
 62
7
100
AcDbLine
 10
-17.830217
 20
-1.557858
 30
0.0
 11
-15.586299
 21
0.646072
 31
0.0
  0
LINE
  5
1b3
100
AcDbEntity
  8
Export
 62
7
100
AcDbLine
 10
-15.586299
 20
0.646072
 30
0.0
 11
-10.061271
 21
9.891641
 31
0.0
  0
LINE
  5
1b4
100
AcDbEntity
  8
Export
 62
7
100
AcDbLine
 10
-10.061271
 20
9.891641
 30
0.0
 11
-12.586031
 21
7.800377
 31
0.0
  0
LINE
  5
1b5
100
AcDbEntity
  8
Export
 62
7
100
AcDbLine
 10
-12.586031
 20
7.800377
 30
0.0
 11
-14.962219
 21
5.758422
 31
0.0
  0
LINE
  5
1b6
100
AcDbEntity
  8
Export
 62
7
100
AcDbLine
 10
-14.962219
 20
5.758422
 30
0.0
 11
-17.187882
 21
3.775917
 31
0.0
  0
LINE
  5
1b7
100
AcDbEntity
  8
Export
 62
7
100
AcDbLine
 10
-17.187882
 20
3.775917
 30
0.0
 11
-19.261068
 21
1.863005
 31
0.0
  0
LINE
  5
1b8
100
AcDbEntity
  8
Export
 62
7
100
AcDbLine
 10
-19.261068
 20
1.863005
 30
0.0
 11
-21.179822
 21
0.029829
 31
0.0
  0
LINE
  5
1b9
100
AcDbEntity
  8
Export
 62
7
100
AcDbLine
 10
-21.179822
 20
0.029829
 30
0.0
 11
-22.942193
 21
-1.713469
 31
0.0
  0
LINE
  5
1ba
100
AcDbEntity
  8
Export
 62
7
100
AcDbLine
 10
-22.942193
 20
-1.713469
 30
0.0
 11
-25.989969
 21
-4.889858
 31
0.0
  0
LINE
  5
1bb
100
AcDbEntity
  8
Export
 62
7
100
AcDbLine
 10
-25.989969
 20
-4.889858
 30
0.0
 11
-23.442951
 21
-7.506070
 31
0.0
  0
LINE
  5
1bc
100
AcDbEntity
  8
Export
 62
7
100
AcDbLine
 10
16.264512
 20
0.304010
 30
0.0
 11
18.443094
 21
-3.343645
 31
0.0
  0
LINE
  5
1bd
100
AcDbEntity
  8
Export
 62
7
100
AcDbLine
 10
18.443094
 20
-3.343645
 30
0.0
 11
21.100981
 21
-0.703625
 31
0.0
  0
LINE
  5
1be
100
AcDbEntity
  8
Export
 62
7
100
AcDbLine
 10
21.100981
 20
-0.703625
 30
0.0
 11
23.457880
 21
1.771387
 31
0.0
  0
LINE
  5
1bf
100
AcDbEntity
  8
Export
 62
7
100
AcDbLine
 10
23.457880
 20
1.771387
 30
0.0
 11
25.526355
 21
4.086223
 31
0.0
  0
LINE
  5
1c0
100
AcDbEntity
  8
Export
 62
7
100
AcDbLine
 10
25.526355
 20
4.086223
 30
0.0
 11
27.318969
 21
6.245715
 31
0.0
  0
LINE
  5
1c1
100
AcDbEntity
  8
Export
 62
7
100
AcDbLine
 10
27.318969
 20
6.245715
 30
0.0
 11
28.848284
 21
8.254693
 31
0.0
  0
LINE
  5
1c2
100
AcDbEntity
  8
Export
 62
7
100
AcDbLine
 10
28.848284
 20
8.254693
 30
0.0
 11
30.126864
 21
10.117990
 31
0.0
  0
LINE
  5
1c3
100
AcDbEntity
  8
Export
 62
7
100
AcDbLine
 10
30.126864
 20
10.117990
 30
0.0
 11
31.167271
 21
11.840436
 31
0.0
  0
LINE
  5
1c4
100
AcDbEntity
  8
Export
 62
7
100
AcDbLine
 10
31.167271
 20
11.840436
 30
0.0
 11
31.982069
 21
13.426863
 31
0.0
  0
LINE
  5
1c5
100
AcDbEntity
  8
Export
 62
7
100
AcDbLine
 10
31.982069
 20
13.426863
 30
0.0
 11
32.583821
 21
14.882102
 31
0.0
  0
LINE
  5
1c6
100
AcDbEntity
  8
Export
 62
7
100
AcDbLine
 10
32.583821
 20
14.882102
 30
0.0
 11
32.985089
 21
16.210985
 31
0.0
  0
LINE
  5
1c7
100
AcDbEntity
  8
Export
 62
7
100
AcDbLine
 10
32.985089
 20
16.210985
 30
0.0
 11
33.198437
 21
17.418343
 31
0.0
  0
LINE
  5
1c8
100
AcDbEntity
  8
Export
 62
7
100
AcDbLine
 10
33.198437
 20
17.418343
 30
0.0
 11
33.236428
 21
18.509008
 31
0.0
  0
LINE
  5
1c9
100
AcDbEntity
  8
Export
 62
7
100
AcDbLine
 10
33.236428
 20
18.509008
 30
0.0
 11
33.193590
 21
19.012090
 31
0.0
  0
LINE
  5
1ca
100
AcDbEntity
  8
Export
 62
7
100
AcDbLine
 10
33.193590
 20
19.012090
 30
0.0
 11
33.111624
 21
19.487810
 31
0.0
  0
LINE
  5
1cb
100
AcDbEntity
  8
Export
 62
7
100
AcDbLine
 10
33.111624
 20
19.487810
 30
0.0
 11
32.992100
 21
19.936773
 31
0.0
  0
LINE
  5
1cc
100
AcDbEntity
  8
Export
 62
7
100
AcDbLine
 10
32.992100
 20
19.936773
 30
0.0
 11
32.836589
 21
20.359582
 31
0.0
  0
LINE
  5
1cd
100
AcDbEntity
  8
Export
 62
7
100
AcDbLine
 10
32.836589
 20
20.359582
 30
0.0
 11
32.423886
 21
21.129154
 31
0.0
  0
LINE
  5
1ce
100
AcDbEntity
  8
Export
 62
7
100
AcDbLine
 10
32.423886
 20
21.129154
 30
0.0
 11
31.886077
 21
21.801358
 31
0.0
  0
LINE
  5
1cf
100
AcDbEntity
  8
Export
 62
7
100
AcDbLine
 10
31.886077
 20
21.801358
 30
0.0
 11
31.235726
 21
22.381025
 31
0.0
  0
LINE
  5
1d0
100
AcDbEntity
  8
Export
 62
7
100
AcDbLine
 10
31.235726
 20
22.381025
 30
0.0
 11
30.485396
 21
22.872987
 31
0.0
  0
LINE
  5
1d1
100
AcDbEntity
  8
Export
 62
7
100
AcDbLine
 10
30.485396
 20
22.872987
 30
0.0
 11
29.647649
 21
23.282075
 31
0.0
  0
LINE
  5
1d2
100
AcDbEntity
  8
Export
 62
7
100
AcDbLine
 10
29.647649
 20
23.282075
 30
0.0
 11
28.735050
 21
23.613120
 31
0.0
  0
LINE
  5
1d3
100
AcDbEntity
  8
Export
 62
7
100
AcDbLine
 10
28.735050
 20
23.613120
 30
0.0
 11
27.760160
 21
23.870954
 31
0.0
  0
LINE
  5
1d4
100
AcDbEntity
  8
Export
 62
7
100
AcDbLine
 10
27.760160
 20
23.870954
 30
0.0
 11
26.735543
 21
24.060409
 31
0.0
  0
LINE
  5
1d5
100
AcDbEntity
  8
Export
 62
7
100
AcDbLine
 10
26.735543
 20
24.060409
 30
0.0
 11
25.673762
 21
24.186315
 31
0.0
  0
LINE
  5
1d6
100
AcDbEntity
  8
Export
 62
7
100
AcDbLine
 10
25.673762
 20
24.186315
 30
0.0
 11
24.587379
 21
24.253504
 31
0.0
  0
LINE
  5
1d7
100
AcDbEntity
  8
Export
 62
7
100
AcDbLine
 10
24.587379
 20
24.253504
 30
0.0
 11
23.488958
 21
24.266807
 31
0.0
  0
LINE
  5
1d8
100
AcDbEntity
  8
Export
 62
7
100
AcDbLine
 10
23.488958
 20
24.266807
 30
0.0
 11
22.391063
 21
24.231056
 31
0.0
  0
LINE
  5
1d9
100
AcDbEntity
  8
Export
 62
7
100
AcDbLine
 10
22.391063
 20
24.231056
 30
0.0
 11
21.306255
 21
24.151082
 31
0.0
  0
LINE
  5
1da
100
AcDbEntity
  8
Export
 62
7
100
AcDbLine
 10
21.306255
 20
24.151082
 30
0.0
 11
20.247098
 21
24.031716
 31
0.0
  0
LINE
  5
1db
100
AcDbEntity
  8
Export
 62
7
100
AcDbLine
 10
20.247098
 20
24.031716
 30
0.0
 11
18.255988
 21
23.694136
 31
0.0
  0
LINE
  5
1dc
100
AcDbEntity
  8
Export
 62
7
100
AcDbLine
 10
18.255988
 20
23.694136
 30
0.0
 11
16.518238
 21
23.256965
 31
0.0
  0
LINE
  5
1dd
100
AcDbEntity
  8
Export
 62
7
100
AcDbLine
 10
16.518238
 20
23.256965
 30
0.0
 11
19.051344
 21
20.470131
 31
0.0
  0
LINE
  5
1de
100
AcDbEntity
  8
Export
 62
7
100
AcDbLine
 10
19.051344
 20
20.470131
 30
0.0
 11
21.032230
 21
20.886831
 31
0.0
  0
LINE
  5
1df
100
AcDbEntity
  8
Export
 62
7
100
AcDbLine
 10
21.032230
 20
20.886831
 30
0.0
 11
22.850908
 21
21.115336
 31
0.0
  0
LINE
  5
1e0
100
AcDbEntity
  8
Export
 62
7
100
AcDbLine
 10
22.850908
 20
21.115336
 30
0.0
 11
23.691038
 21
21.156643
 31
0.0
  0
LINE
  5
1e1
100
AcDbEntity
  8
Export
 62
7
100
AcDbLine
 10
23.691038
 20
21.156643
 30
0.0
 11
24.480562
 21
21.148057
 31
0.0
  0
LINE
  5
1e2
100
AcDbEntity
  8
Export
 62
7
100
AcDbLine
 10
24.480562
 20
21.148057
 30
0.0
 11
25.216125
 21
21.088627
 31
0.0
  0
LINE
  5
1e3
100
AcDbEntity
  8
Export
 62
7
100
AcDbLine
 10
25.216125
 20
21.088627
 30
0.0
 11
25.894378
 21
20.977405
 31
0.0
  0
LINE
  5
1e4
100
AcDbEntity
  8
Export
 62
7
100
AcDbLine
 10
25.894378
 20
20.977405
 30
0.0
 11
26.511967
 21
20.813442
 31
0.0
  0
LINE
  5
1e5
100
AcDbEntity
  8
Export
 62
7
100
AcDbLine
 10
26.511967
 20
20.813442
 30
0.0
 11
27.065542
 21
20.595791
 31
0.0
  0
LINE
  5
1e6
100
AcDbEntity
  8
Export
 62
7
100
AcDbLine
 10
27.065542
 20
20.595791
 30
0.0
 11
27.551751
 21
20.323501
 31
0.0
  0
LINE
  5
1e7
100
AcDbEntity
  8
Export
 62
7
100
AcDbLine
 10
27.551751
 20
20.323501
 30
0.0
 11
27.967241
 21
19.995625
 31
0.0
  0
LINE
  5
1e8
100
AcDbEntity
  8
Export
 62
7
100
AcDbLine
 10
27.967241
 20
19.995625
 30
0.0
 11
28.308662
 21
19.611214
 31
0.0
  0
LINE
  5
1e9
100
AcDbEntity
  8
Export
 62
7
100
AcDbLine
 10
28.308662
 20
19.611214
 30
0.0
 11
28.572660
 21
19.169318
 31
0.0
  0
LINE
  5
1ea
100
AcDbEntity
  8
Export
 62
7
100
AcDbLine
 10
28.572660
 20
19.169318
 30
0.0
 11
28.755885
 21
18.668991
 31
0.0
  0
LINE
  5
1eb
100
AcDbEntity
  8
Export
 62
7
100
AcDbLine
 10
28.755885
 20
18.668991
 30
0.0
 11
28.854985
 21
18.109282
 31
0.0
  0
LINE
  5
1ec
100
AcDbEntity
  8
Export
 62
7
100
AcDbLine
 10
28.854985
 20
18.109282
 30
0.0
 11
28.866608
 21
17.489244
 31
0.0
  0
LINE
  5
1ed
100
AcDbEntity
  8
Export
 62
7
100
AcDbLine
 10
28.866608
 20
17.489244
 30
0.0
 11
28.787402
 21
16.807927
 31
0.0
  0
LINE
  5
1ee
100
AcDbEntity
  8
Export
 62
7
100
AcDbLine
 10
28.787402
 20
16.807927
 30
0.0
 11
28.614016
 21
16.064383
 31
0.0
  0
LINE
  5
1ef
100
AcDbEntity
  8
Export
 62
7
100
AcDbLine
 10
28.614016
 20
16.064383
 30
0.0
 11
28.343097
 21
15.257663
 31
0.0
  0
LINE
  5
1f0
100
AcDbEntity
  8
Export
 62
7
100
AcDbLine
 10
28.343097
 20
15.257663
 30
0.0
 11
27.971294
 21
14.386819
 31
0.0
  0
LINE
  5
1f1
100
AcDbEntity
  8
Export
 62
7
100
AcDbLine
 10
27.971294
 20
14.386819
 30
0.0
 11
27.495256
 21
13.450902
 31
0.0
  0
LINE
  5
1f2
100
AcDbEntity
  8
Export
 62
7
100
AcDbLine
 10
27.495256
 20
13.450902
 30
0.0
 11
26.911630
 21
12.448963
 31
0.0
  0
LINE
  5
1f3
100
AcDbEntity
  8
Export
 62
7
100
AcDbLine
 10
26.911630
 20
12.448963
 30
0.0
 11
26.217064
 21
11.380054
 31
0.0
  0
LINE
  5
1f4
100
AcDbEntity
  8
Export
 62
7
100
AcDbLine
 10
26.217064
 20
11.380054
 30
0.0
 11
25.408208
 21
10.243225
 31
0.0
  0
LINE
  5
1f5
100
AcDbEntity
  8
Export
 62
7
100
AcDbLine
 10
25.408208
 20
10.243225
 30
0.0
 11
24.481708
 21
9.037530
 31
0.0
  0
LINE
  5
1f6
100
AcDbEntity
  8
Export
 62
7
100
AcDbLine
 10
24.481708
 20
9.037530
 30
0.0
 11
23.434214
 21
7.762017
 31
0.0
  0
LINE
  5
1f7
100
AcDbEntity
  8
Export
 62
7
100
AcDbLine
 10
23.434214
 20
7.762017
 30
0.0
 11
22.262374
 21
6.415740
 31
0.0
  0
LINE
  5
1f8
100
AcDbEntity
  8
Export
 62
7
100
AcDbLine
 10
22.262374
 20
6.415740
 30
0.0
 11
20.962835
 21
4.997750
 31
0.0
  0
LINE
  5
1f9
100
AcDbEntity
  8
Export
 62
7
100
AcDbLine
 10
20.962835
 20
4.997750
 30
0.0
 11
19.532246
 21
3.507097
 31
0.0
  0
LINE
  5
1fa
100
AcDbEntity
  8
Export
 62
7
100
AcDbLine
 10
19.532246
 20
3.507097
 30
0.0
 11
17.967256
 21
1.942833
 31
0.0
  0
LINE
  5
1fb
100
AcDbEntity
  8
Export
 62
7
100
AcDbLine
 10
17.967256
 20
1.942833
 30
0.0
 11
16.264512
 21
0.304010
 31
0.0
  0
LINE
  5
1fc
100
AcDbEntity
  8
Export
 62
7
100
AcDbLine
 10
16.264512
 20
0.304010
 30
0.0
 11
16.264512
 21
0.304010
 31
0.0
  0
LINE
  5
1fd
100
AcDbEntity
  8
Export
 62
7
100
AcDbLine
 10
0.207949
 20
16.343926
 30
0.0
 11
1.679967
 21
13.414626
 31
0.0
  0
LINE
  5
1fe
100
AcDbEntity
  8
Export
 62
7
100
AcDbLine
 10
1.679967
 20
13.414626
 30
0.0
 11
0.282669
 21
12.546789
 31
0.0
  0
LINE
  5
1ff
100
AcDbEntity
  8
Export
 62
7
100
AcDbLine
 10
0.282669
 20
12.546789
 30
0.0
 11
-1.022993
 21
11.606791
 31
0.0
  0
LINE
  5
200
100
AcDbEntity
  8
Export
 62
7
100
AcDbLine
 10
-1.022993
 20
11.606791
 30
0.0
 11
-2.366692
 21
10.597235
 31
0.0
  0
LINE
  5
201
100
AcDbEntity
  8
Export
 62
7
100
AcDbLine
 10
-2.366692
 20
10.597235
 30
0.0
 11
-3.878099
 21
9.520724
 31
0.0
  0
LINE
  5
202
100
AcDbEntity
  8
Export
 62
7
100
AcDbLine
 10
-3.878099
 20
9.520724
 30
0.0
 11
-0.468979
 21
15.910289
 31
0.0
  0
LINE
  5
203
100
AcDbEntity
  8
Export
 62
7
100
AcDbLine
 10
-0.468979
 20
15.910289
 30
0.0
 11
0.207949
 21
16.343926
 31
0.0
  0
LINE
  5
204
100
AcDbEntity
  8
Export
 62
7
100
AcDbLine
 10
0.207949
 20
16.343926
 30
0.0
 11
0.207949
 21
16.343926
 31
0.0
  0
LINE
  5
205
100
AcDbEntity
  8
Export
 62
7
100
AcDbLine
 10
4.809217
 20
18.936222
 30
0.0
 11
6.733073
 21
16.006922
 31
0.0
  0
LINE
  5
206
100
AcDbEntity
  8
Export
 62
7
100
AcDbLine
 10
6.733073
 20
16.006922
 30
0.0
 11
7.416272
 21
16.435627
 31
0.0
  0
LINE
  5
207
100
AcDbEntity
  8
Export
 62
7
100
AcDbLine
 10
7.416272
 20
16.435627
 30
0.0
 11
8.096578
 21
16.794155
 31
0.0
  0
LINE
  5
208
100
AcDbEntity
  8
Export
 62
7
100
AcDbLine
 10
8.096578
 20
16.794155
 30
0.0
 11
9.606401
 21
17.444633
 31
0.0
  0
LINE
  5
209
100
AcDbEntity
  8
Export
 62
7
100
AcDbLine
 10
9.606401
 20
17.444633
 30
0.0
 11
6.910386
 21
19.884983
 31
0.0
  0
LINE
  5
20a
100
AcDbEntity
  8
Export
 62
7
100
AcDbLine
 10
6.910386
 20
19.884983
 30
0.0
 11
6.362702
 21
19.728390
 31
0.0
  0
LINE
  5
20b
100
AcDbEntity
  8
Export
 62
7
100
AcDbLine
 10
6.362702
 20
19.728390
 30
0.0
 11
5.829225
 21
19.519840
 31
0.0
  0
LINE
  5
20c
100
AcDbEntity
  8
Export
 62
7
100
AcDbLine
 10
5.829225
 20
19.519840
 30
0.0
 11
5.311035
 21
19.256672
 31
0.0
  0
LINE
  5
20d
100
AcDbEntity
  8
Export
 62
7
100
AcDbLine
 10
5.311035
 20
19.256672
 30
0.0
 11
4.809217
 21
18.936222
 31
0.0
  0
LINE
  5
20e
100
AcDbEntity
  8
Export
 62
7
100
AcDbLine
 10
4.809217
 20
18.936222
 30
0.0
 11
4.809217
 21
18.936222
 31
0.0
  0
ENDSEC
  0
SECTION
  2
OBJECTS
  0
DICTIONARY
  5
C
330
0
100
AcDbDictionary
  3
ACAD_GROUP
350
D
  3
ACAD_MLINESTYLE
350
17
  0
DICTIONARY
  5
D
330
C
100
AcDbDictionary
  0
DICTIONARY
  5
1A
330
C
100
AcDbDictionary
  0
DICTIONARY
  5
17
330
C
100
AcDbDictionary
  3
STANDARD
350
18
  0
DICTIONARY
  5
19
330
C
100
AcDbDictionary
  0
ENDSEC
  0
EOF
